<svg width="95" height="95" fill="none" xmlns="http://www.w3.org/2000/svg"><g clip-path="url('#clip0_1_845')" fill="#fff"><path d="M47.5 28.945a18.555 18.555 0 1 0 0 37.11 18.555 18.555 0 0 0 0-37.11Zm0 32.657a14.102 14.102 0 1 1 0-28.204 14.102 14.102 0 0 1 0 28.204Z"/><path d="M89.805 35.625h-6.628a.742.742 0 0 1-.698-.505 37.014 37.014 0 0 0-1.484-3.6.743.743 0 0 1 .133-.853l4.684-4.69a5.197 5.197 0 0 0 0-7.348l-9.448-9.44a5.196 5.196 0 0 0-7.348 0l-4.683 4.682a.742.742 0 0 1-.854.134 36.929 36.929 0 0 0-3.6-1.484.742.742 0 0 1-.504-.698V5.195A5.195 5.195 0 0 0 54.18 0H40.82a5.195 5.195 0 0 0-5.195 5.195v6.628a.742.742 0 0 1-.505.698 37.014 37.014 0 0 0-3.6 1.484.743.743 0 0 1-.853-.134l-4.69-4.683a5.196 5.196 0 0 0-7.348 0l-9.44 9.448a5.196 5.196 0 0 0 0 7.348l4.682 4.683a.742.742 0 0 1 .134.854 36.929 36.929 0 0 0-1.484 3.6.742.742 0 0 1-.698.504H5.195A5.195 5.195 0 0 0 0 40.82v13.36a5.195 5.195 0 0 0 5.195 5.195h6.628a.742.742 0 0 1 .698.505 37.014 37.014 0 0 0 1.484 3.6.743.743 0 0 1-.134.853l-4.683 4.69a5.196 5.196 0 0 0 0 7.348l9.448 9.448a5.195 5.195 0 0 0 7.348 0l4.683-4.683a.742.742 0 0 1 .854-.134 36.904 36.904 0 0 0 3.6 1.485.742.742 0 0 1 .504.697v6.62A5.195 5.195 0 0 0 40.82 95h13.36a5.195 5.195 0 0 0 5.195-5.195v-6.628a.742.742 0 0 1 .505-.698 37.014 37.014 0 0 0 3.6-1.484.743.743 0 0 1 .853.133l4.69 4.684a5.197 5.197 0 0 0 7.348 0l9.448-9.448a5.195 5.195 0 0 0 0-7.348l-4.683-4.683a.742.742 0 0 1-.134-.854 36.904 36.904 0 0 0 1.485-3.6.742.742 0 0 1 .697-.504h6.62A5.195 5.195 0 0 0 95 54.18V40.82a5.195 5.195 0 0 0-5.195-5.195Zm.742 18.555a.742.742 0 0 1-.742.742h-6.628a5.196 5.196 0 0 0-4.899 3.48 32.584 32.584 0 0 1-1.306 3.162 5.196 5.196 0 0 0 1.002 5.938l4.683 4.683a.742.742 0 0 1 0 1.047l-9.44 9.433a.742.742 0 0 1-1.047 0l-4.683-4.683a5.195 5.195 0 0 0-5.937-1.002c-1.033.49-2.091.926-3.17 1.306a5.195 5.195 0 0 0-3.473 4.898v6.62a.742.742 0 0 1-.742.743H40.82a.742.742 0 0 1-.742-.742v-6.628a5.196 5.196 0 0 0-3.48-4.899 32.596 32.596 0 0 1-3.163-1.306 5.195 5.195 0 0 0-5.937 1.002l-4.683 4.683a.742.742 0 0 1-1.047 0l-9.433-9.44a.742.742 0 0 1 0-1.047l4.683-4.683a5.195 5.195 0 0 0 1.002-5.937 32.563 32.563 0 0 1-1.306-3.17 5.195 5.195 0 0 0-4.891-3.458H5.195a.742.742 0 0 1-.742-.742V40.82a.742.742 0 0 1 .742-.742h6.628a5.196 5.196 0 0 0 4.898-3.48c.38-1.077.816-2.132 1.307-3.163a5.195 5.195 0 0 0-1.002-5.937l-4.683-4.683a.742.742 0 0 1 0-1.047l9.44-9.433a.742.742 0 0 1 1.047 0l4.683 4.683a5.195 5.195 0 0 0 5.937 1.002c1.033-.49 2.091-.927 3.17-1.306a5.195 5.195 0 0 0 3.458-4.891V5.195a.742.742 0 0 1 .742-.742h13.36a.742.742 0 0 1 .742.742v6.628a5.196 5.196 0 0 0 3.48 4.898c1.077.38 2.132.816 3.162 1.307a5.196 5.196 0 0 0 5.938-1.002l4.683-4.683a.742.742 0 0 1 1.047 0l9.448 9.448a.742.742 0 0 1 0 1.046l-4.684 4.683a5.196 5.196 0 0 0-1.001 5.938c.49 1.032.926 2.09 1.306 3.169a5.196 5.196 0 0 0 4.898 3.473h6.606a.742.742 0 0 1 .742.743V54.18Z"/></g><defs><clipPath id="clip0_1_845"><path fill="#fff" d="M0 0h95v95H0z"/></clipPath></defs></svg>