<svg width="154" height="154" fill="none" xmlns="http://www.w3.org/2000/svg"><path d="M134.75 19.25H19.25C8.62 19.25 0 27.87 0 38.5v77c0 10.631 8.62 19.25 19.25 19.25h115.5c10.631 0 19.25-8.619 19.25-19.25v-77c0-10.63-8.619-19.25-19.25-19.25Zm4.813 9.625L77 77 14.437 28.875h125.126ZM9.625 115.5v-77l43.313 33.688-42.856 46.094c-.27-.886-.457-1.805-.457-2.782Zm7.483 9.37 43.433-46.277L77 91.028l15.751-12.517 44.141 46.354c-.693.159-119.09.159-119.784.005Zm126.81-6.584-42.855-46.099L144.375 38.5v77c0 .977-.188 1.896-.457 2.786Z" fill="#fff"/></svg>