<svg width="48" height="48" fill="none" xmlns="http://www.w3.org/2000/svg"><g clip-path="url('#clip0_13_17')"><path d="M8.4 48h31.2a8.4 8.4 0 0 0 8.4-8.4V8.4A8.4 8.4 0 0 0 39.6 0H8.4A8.4 8.4 0 0 0 0 8.4v31.2A8.4 8.4 0 0 0 8.4 48Z" fill="#00AADE"/><path d="M35.4 15.6a6 6 0 0 0 3-3.6c-1.2 1.2-3.75 1.598-3.75 1.598A6 6 0 0 0 24.278 19.2H24a17.586 17.586 0 0 1-12.6-6.6s-3.6 4.8 1.8 8.4c0 0-2.4 0-3-.6 0 0-.6 3.6 4.8 6a2.895 2.895 0 0 1-2.4 0c0 2.318 2.415 4.2 5.4 4.2 0 1.657-4.027 3-9 3 7.8 5.4 26.4 4.2 27.6-16.2l3-3-4.2 1.2Z" fill="#fff"/></g><defs><clipPath id="clip0_13_17"><path fill="#fff" d="M0 0h48v48H0z"/></clipPath></defs></svg>