<svg width="78" height="78" fill="none" xmlns="http://www.w3.org/2000/svg"><g clip-path="url('#clip0_1_851')" fill="#fff"><path d="M50.406 68.371c-.03.01-2.726.907-5.066.907-1.292 0-1.813-.268-1.98-.385-.818-.57-2.34-1.638.264-6.825l4.875-9.722c2.892-5.772 3.32-11.354 1.195-15.723-1.736-3.573-5.066-6.026-9.36-6.903a23.286 23.286 0 0 0-4.671-.473c-9.015 0-15.084 5.265-15.338 5.49a2.442 2.442 0 0 0-.497 3.051 2.435 2.435 0 0 0 2.9 1.083c.025-.01 2.726-.912 5.066-.912 1.282 0 1.799.268 1.96.38.824.576 2.35 1.658-.249 6.836L24.63 54.9c-2.896 5.777-3.32 11.36-1.194 15.723 1.735 3.573 5.06 6.026 9.365 6.903 1.53.307 3.1.473 4.651.473 9.02 0 15.094-5.265 15.348-5.49a2.44 2.44 0 0 0 .497-3.052 2.463 2.463 0 0 0-2.891-1.087ZM46.315 24.377c6.732 0 12.189-5.457 12.189-12.189C58.504 5.457 53.047 0 46.315 0c-6.731 0-12.188 5.457-12.188 12.188 0 6.732 5.457 12.188 12.188 12.188Z"/></g><defs><clipPath id="clip0_1_851"><path fill="#fff" d="M0 0h78v78H0z"/></clipPath></defs></svg>