<svg width="96" height="96" fill="none" xmlns="http://www.w3.org/2000/svg"><path d="M42.92 32.82a2 2 0 0 1-1-.27L35.62 29a.6.6 0 0 0-.27-.07H19.5a2 2 0 0 1-2-2V12.15a2 2 0 0 1 2-2h23.42a2 2 0 0 1 2 2v18.63a2 2 0 0 1-1 1.76c-.303.18-.648.276-1 .28ZM19.5 11.61a.54.54 0 0 0-.54.54v14.7a.54.54 0 0 0 .54.53h15.85c.35.003.695.096 1 .27l6.29 3.59a.53.53 0 0 0 .54 0 .51.51 0 0 0 .26-.46V12.15a.54.54 0 0 0-.53-.54H19.5Z" fill="snow"/><path d="M29 22.83a.749.749 0 0 1-.56-.25l-2.23-2.48a.751.751 0 0 1 .06-1.1.73.73 0 0 1 1.05.06l1.75 2 5.4-4.29a.76.76 0 0 1 1.06.13.75.75 0 0 1-.12 1.1l-6 4.72a.739.739 0 0 1-.41.11ZM26.76 15.92h-4.3a.75.75 0 1 1 0-1.5h4.3a.75.75 0 0 1 0 1.5ZM42.49 60.16a.76.76 0 0 1-.75-.75 21.829 21.829 0 0 1 14.59-20.57.753.753 0 0 1 .955.465.75.75 0 0 1-.465.955 20.32 20.32 0 0 0-13.58 19.15.76.76 0 0 1-.75.75ZM84.58 60.16a.76.76 0 0 1-.75-.75 20.31 20.31 0 0 0-13.57-19.15.749.749 0 0 1-.46-1 .73.73 0 0 1 1-.45 21.81 21.81 0 0 1 14.53 20.6.76.76 0 0 1-.75.75Z" fill="snow"/><path d="M65.07 51.48H62a.74.74 0 0 1-.69-.45l-4.4-10.13a.752.752 0 1 1 1.38-.6l4.2 9.7h2.09l4.2-9.68a.752.752 0 1 1 1.38.6L65.76 51a.74.74 0 0 1-.69.48Z" fill="snow"/><path d="M69.48 60.16H57.6a.75.75 0 0 1-.6-.36.73.73 0 0 1 0-.73l4.41-8.68A.73.73 0 0 1 62 50h3.07a.75.75 0 0 1 .67.41l4.41 8.68a.73.73 0 0 1 0 .73.76.76 0 0 1-.67.34Zm-10.66-1.5h9.44l-3.65-7.18h-2.15l-3.64 7.18Z" fill="snow"/><path d="M91 68.23H38.34a.75.75 0 1 1 0-1.5H91a1.25 1.25 0 0 0 1.25-1.25v-4.07A1.25 1.25 0 0 0 91 60.16H28.6a.75.75 0 1 1 0-1.5H91a2.75 2.75 0 0 1 2.75 2.75v4.07A2.75 2.75 0 0 1 91 68.23Z" fill="snow"/><path d="M27.85 59.9a.75.75 0 0 1-.39-1.39 10.36 10.36 0 1 0-10.87 0 .752.752 0 0 1-.79 1.28 11.85 11.85 0 1 1 12.45 0 .83.83 0 0 1-.4.11Z" fill="snow"/><path d="M22 85.89a40 40 0 0 1-13.33-2C4.48 82.32 2.25 80 2.25 77.26a19.78 19.78 0 0 1 39.55 0c0 5.96-9.93 8.63-19.8 8.63ZM22 59A18.3 18.3 0 0 0 3.75 77.26c0 4.68 9.19 7.13 18.27 7.13s18.28-2.45 18.28-7.13A18.3 18.3 0 0 0 22 59ZM42.92 32.82a2 2 0 0 1-1-.27L35.62 29a.6.6 0 0 0-.27-.07H19.5a2 2 0 0 1-2-2V12.15a2 2 0 0 1 2-2h23.42a2 2 0 0 1 2 2v18.63a2 2 0 0 1-1 1.76c-.303.18-.648.276-1 .28ZM19.5 11.61a.54.54 0 0 0-.54.54v14.7a.54.54 0 0 0 .54.53h15.85c.35.003.695.096 1 .27l6.29 3.59a.53.53 0 0 0 .54 0 .51.51 0 0 0 .26-.46V12.15a.54.54 0 0 0-.53-.54H19.5Z" fill="snow"/><path d="M29 22.83a.749.749 0 0 1-.56-.25l-2.23-2.48a.751.751 0 0 1 .06-1.1.73.73 0 0 1 1.05.06l1.75 2 5.4-4.29a.76.76 0 0 1 1.06.13.75.75 0 0 1-.12 1.1l-6 4.72a.739.739 0 0 1-.41.11ZM26.76 15.92h-4.3a.75.75 0 1 1 0-1.5h4.3a.75.75 0 0 1 0 1.5ZM63.54 44.33C57.82 44.33 52.93 37 52.93 31a10.61 10.61 0 0 1 21.22 0c0 6-4.9 13.33-10.61 13.33Zm0-22.42A9.12 9.12 0 0 0 54.43 31c0 5.21 4.29 11.81 9.11 11.81 4.82 0 9.11-6.6 9.11-11.81a9.12 9.12 0 0 0-9.11-9.09Z" fill="snow"/></svg>