<svg width="148" height="148" fill="none" xmlns="http://www.w3.org/2000/svg"><path d="M133.466 15.552h-22.853L82.438 6.359A11.976 11.976 0 0 0 72.23 7.672L55.254 18.578a1.655 1.655 0 0 0-.051 2.755 1.657 1.657 0 0 0 1.84.035L74.02 10.476a8.655 8.655 0 0 1 7.389-.937l28.435 9.25c.165.054.338.082.511.081h21.457v27.84h-12.328a1.657 1.657 0 0 0-1.471.896 16.676 16.676 0 0 1-8.074 6.96v-7.449c2.657-1.133 5.492-3.104 7.302-6.541a1.653 1.653 0 0 0 .118-1.266 1.659 1.659 0 0 0-3.055-.287c-3.151 6.025-10.984 6.293-11.028 6.293-10.493 0-13.522-7.324-13.644-7.628a1.658 1.658 0 0 0-1.546-1.064H72.514a4.426 4.426 0 1 1 0-8.848h18.587a1.66 1.66 0 1 0 0-3.316H72.514a7.744 7.744 0 0 0-7.89 7.74 7.741 7.741 0 0 0 7.89 7.74h14.534c1.385 2.54 5.819 8.692 16.263 8.692a17.886 17.886 0 0 0 3.312-.46v24.57a2.447 2.447 0 0 1-2.445 2.445H18.636a2.45 2.45 0 0 1-2.449-2.439V30.222a2.449 2.449 0 0 1 2.446-2.446h42.27a1.66 1.66 0 1 0 0-3.316H18.636a5.782 5.782 0 0 0-5.761 5.762v42.526a5.781 5.781 0 0 0 5.76 5.761h85.543a5.782 5.782 0 0 0 5.761-5.76v-14.67c5.943-1.894 9.27-6.18 10.484-8.057h13.043a1.66 1.66 0 0 0 1.659-1.656V17.211a1.66 1.66 0 0 0-1.659-1.66Z" fill="#fff"/><path d="M24.116 60.22V42.746a8.88 8.88 0 0 0 7.045-7.044h28.308a1.66 1.66 0 0 0 0-3.316H29.66a1.66 1.66 0 0 0-1.66 1.66 5.548 5.548 0 0 1-5.54 5.556 1.66 1.66 0 0 0-1.648 1.644v20.477a1.654 1.654 0 0 0 1.659 1.657 5.55 5.55 0 0 1 5.541 5.544 1.657 1.657 0 0 0 1.66 1.656h63.48a1.657 1.657 0 0 0 1.66-1.656 5.55 5.55 0 0 1 5.541-5.544 1.66 1.66 0 0 0 1.533-1.022c.083-.201.126-.417.126-.635v-7.492a1.667 1.667 0 0 0-.46-1.218 1.659 1.659 0 0 0-2.855 1.218v5.99a8.885 8.885 0 0 0-7.045 7.044H31.161a8.886 8.886 0 0 0-7.045-7.045Z" fill="#fff"/><path d="M59.229 46.03h3.989a1.66 1.66 0 0 0 0-3.315h-1.304v-1.067a1.66 1.66 0 1 0-3.315 0v1.107a5.203 5.203 0 0 0 .63 10.386h2.052a1.902 1.902 0 1 1 0 3.804h-3.983a1.66 1.66 0 1 0 0 3.316h1.3v1.066a1.659 1.659 0 0 0 3.316 0v-1.115a5.203 5.203 0 0 0-.633-10.386H59.23a1.898 1.898 0 0 1-.75-3.673c.24-.09.494-.133.75-.123ZM41.98 50.314c-.306.308-.48.722-.485 1.157 0 .11.011.219.035.326.02.106.052.208.095.306.04.102.091.2.153.29a1.711 1.711 0 0 0 .454.457 1.867 1.867 0 0 0 .601.249c.107.019.215.028.324.028a1.668 1.668 0 0 0 1.532-1.024c.038-.1.07-.202.093-.306a1.656 1.656 0 0 0-2.798-1.483h-.004ZM78.28 52.407c.063.089.133.172.209.249a1.651 1.651 0 0 0 2.7-.538c.043-.098.075-.201.095-.306.023-.106.035-.213.035-.321a1.658 1.658 0 0 0-2.855-1.218 1.659 1.659 0 0 0-.46 1.218c0 .107.01.215.031.32a1.875 1.875 0 0 0 .246.596ZM120.108 91.818a7.856 7.856 0 0 0-10.597.815l-10.484 11.334a1.662 1.662 0 0 0 .045 2.393 1.67 1.67 0 0 0 1.866.267c.2-.099.378-.238.523-.408l10.484-11.334a4.523 4.523 0 0 1 6.102-.469 4.493 4.493 0 0 1 1.676 3.044 4.498 4.498 0 0 1-.99 3.33l-18.252 22.322a8.36 8.36 0 0 1-5.29 2.991l-35.329 5.114a11.82 11.82 0 0 0-8.605 5.949l-.966 1.734h-32.5l16.836-24.879a23.688 23.688 0 0 1 9.671-8.27 23.689 23.689 0 0 1 12.555-2.07c2.849.295 5.654.915 8.363 1.847a17.23 17.23 0 0 0 5.732 1.006h16.895a4.891 4.891 0 0 1 4.885 4.885 5.28 5.28 0 0 1-5.272 5.273h-15.48a10.857 10.857 0 0 0-6.937 2.503l-3.636 3.018a1.658 1.658 0 0 0 .918 2.898c.43.045.86-.079 1.2-.346l3.634-3.018a7.539 7.539 0 0 1 4.804-1.734H87.45a8.6 8.6 0 0 0 8.588-8.588 8.215 8.215 0 0 0-8.2-8.201h-16.89a13.892 13.892 0 0 1-4.625-.818 40.9 40.9 0 0 0-9.103-2.023 26.992 26.992 0 0 0-25.34 11.773l-18.586 27.461a1.662 1.662 0 0 0 .512 2.365c.26.156.558.238.861.237h36.601a1.662 1.662 0 0 0 1.446-.867l1.445-2.602a8.497 8.497 0 0 1 6.183-4.272l35.338-5.094a11.667 11.667 0 0 0 7.382-4.174l18.252-22.321a7.806 7.806 0 0 0-1.191-11.071h-.015Z" fill="#fff"/></svg>