<svg width="44" height="44" fill="none" xmlns="http://www.w3.org/2000/svg"><g clip-path="url('#clip0_1_38')"><path d="M27.273 33.698c-3.855 0-7.491-1.293-10.218-3.659-2.728-2.365-4.219-5.52-4.219-8.863s1.491-6.498 4.219-8.863c2.727-2.366 6.363-3.66 10.218-3.66 3.854 0 7.49 1.294 10.218 3.66 5.636 4.889 5.636 12.837 0 17.726-2.727 2.366-6.364 3.66-10.218 3.66Zm0-21.385c-2.727 0-5.31.914-7.237 2.586-4 3.47-4 9.084 0 12.554 1.928 1.672 4.51 2.586 7.237 2.586 2.727 0 5.309-.914 7.236-2.586 1.927-1.672 2.982-3.911 2.982-6.277s-1.055-4.605-2.982-6.277c-1.927-1.672-4.509-2.586-7.236-2.586ZM2.763 38.997l10.837-9.4a15.688 15.688 0 0 0 1.818 1.862 16.797 16.797 0 0 0 2.146 1.577l-10.837 9.4-3.963-3.439Z" fill="#fff"/></g><defs><clipPath id="clip0_1_38"><path fill="#fff" transform="translate(0 .074)" d="M0 0h44v43.843H0z"/></clipPath></defs></svg>