<svg width="103" height="103" fill="none" xmlns="http://www.w3.org/2000/svg"><g clip-path="url('#clip0_1_360')"><path d="M28.969 87.71V14.485h45.867v73.227" fill="#fff"/><path d="M74.836 14.484H28.969v73.227h45.867V14.484Z" stroke="#3D3D3D" stroke-width="2" stroke-miterlimit="10"/><path d="M88.516 14.484h-53.11v73.227h53.11V14.484Z" stroke="#3D3D3D" stroke-width="2" stroke-miterlimit="10"/><path d="M91.573 87.71H89.32c-.563 0-.804.081-.804-.562V15.37c0-.564.16-.886.804-.886h2.253c1.77 0 3.38 1.288 3.38 3.058v67.433c0 1.85-1.61 2.736-3.38 2.736Z" fill="#53AF80"/><path d="M91.573 87.71H89.32c-.563 0-.804.081-.804-.562V15.37c0-.564.16-.886.804-.886h2.253c1.77 0 3.38 1.288 3.38 3.058v67.433c0 1.85-1.61 2.736-3.38 2.736Z" fill="#fff" stroke="#3D3D3D" stroke-width="2" stroke-miterlimit="10"/><path d="M32.188 14.484v73.227" stroke="#3D3D3D" stroke-width="2" stroke-miterlimit="10"/><path d="M49.89 14.484h-3.218v74.032h3.219V14.484Z" fill="#3D3D3D"/><path d="M79.02 88.033s-.402 5.15 2.575 7.725c2.978 2.575 6.599 3.701 6.599 3.701" stroke="#3D3D3D" stroke-width="2" stroke-miterlimit="10" stroke-linecap="round"/><path d="M80.469 26.555H58.742v16.093H80.47V26.555Z" fill="#D2232A"/><path d="M81.273 26.555h-22.53v15.289h22.53v-15.29ZM63.57 30.578h12.875M63.57 33.797h12.875M67.594 37.016h4.828" stroke="#3D3D3D" stroke-width="2" stroke-miterlimit="10"/><path d="M18.508 26.555H12.07v53.914h6.438V26.555Z" fill="#8DCEA8"/><path d="M18.508 26.555h-3.219v53.914h3.219V26.555Z" fill="#53AF80"/><path d="M17.703 26.555h-4.426c-.643 0-1.287.322-1.287.965V80.47h6.437V27.52c.08-.643-.08-.965-.724-.965Z" fill="#fff" stroke="#3D3D3D" stroke-width="2" stroke-miterlimit="10"/><path d="M16.657 86.102h-2.172c-1.208 0-2.334-1.208-2.334-2.415V80.47h6.437v3.219c-.08 1.206-.724 2.414-1.93 2.414Z" fill="#fff"/><path d="M16.094 86.102h-1.61c-1.287 0-2.414-1.047-2.414-2.415V80.47h6.438v3.219c0 1.367-1.127 2.414-2.414 2.414ZM12.07 77.25h6.438M12.07 74.836h6.438" stroke="#3D3D3D" stroke-width="2" stroke-miterlimit="10"/><path d="m18.588 27.52-3.299-9.897-3.3 9.897" stroke="#3D3D3D" stroke-width="2" stroke-miterlimit="10" stroke-linecap="round" stroke-linejoin="round"/></g><defs><clipPath id="clip0_1_360"><path fill="#fff" d="M0 0h103v103H0z"/></clipPath></defs></svg>