<svg width="727" height="462" fill="none" xmlns="http://www.w3.org/2000/svg"><g clip-path="url('#clip0_1_858')"><path opacity=".1" d="M727 293.077a155.234 155.234 0 0 1-4.353 36.688 144.874 144.874 0 0 1-12.24 32.736 93.643 93.643 0 0 1-7.108 35.918 93.692 93.692 0 0 1-50.794 50.785 93.744 93.744 0 0 1-35.928 7.11H138.009a119.683 119.683 0 0 1-62.637-17.743 119.634 119.634 0 0 1-44.074-47.901 118.831 118.831 0 0 1-12.78-53.796C6.812 315.909 0 290.835 0 263.873c0-73.331 50.356-132.775 112.482-132.775 2.198 0 4.385.082 6.552.229C158.014 53.955 245.934 0 348.083 0c62.799 0 120.203 20.38 164.179 54.05 16.167-10.615 34.78-16.676 54.588-16.676 62.119 0 112.482 59.45 112.482 132.775 0 4.693-.212 9.322-.636 13.887C707.897 208.025 727 247.915 727 293.077Z" fill="#6C63FF"/><path d="M365.781 130.545c-.75 4.117-3.285 12.808-11.477 12.592-6.253-.159-11.07-5.616-10.905-11.868l2.358-85.128.769-27.762s4.054-7.68 8.09 26.752v.127l11.21 81.647c.18 1.208.165 2.437-.045 3.64Z" fill="#fff"/><path d="M360.323 138.81h-12.037v25.736h12.037V138.81Z" fill="#fff"/><path d="M359.026 158.434h-9.259v11.296h9.259v-11.296Z" fill="#fff"/><path d="M354.635 45.264c-4.213-1.226-7.079-.292-8.897.883l.769-27.762s4.054-7.68 8.09 26.752l.038.127ZM360.323 146.504v18.042h-12.037v-17.687a16.275 16.275 0 0 1 12.037-.355Z" fill="#6C63FF"/><path d="M388.659 203.864c-3.374-2.478-10.072-8.564-6.291-15.832 2.885-5.546 9.901-7.49 15.448-4.599l75.503 39.438 24.625 12.859s5.122 6.988-27.605-4.447l-.121-.038-78.324-25.73a11.624 11.624 0 0 1-3.235-1.651Z" fill="#fff"/><path d="m365.766 173.247-5.276 10.814 23.138 11.282 5.276-10.815-23.138-11.281Z" fill="#fff"/><path d="m366.551 185.576 4.059-8.32-10.156-4.951-4.059 8.319 10.156 4.952Z" fill="#fff"/><path d="M470.218 231.238c2.948-3.252 3.368-6.238 3.101-8.367l24.625 12.859s5.122 6.988-27.605-4.447l-.121-.045ZM376.712 191.965l-16.224-7.91 5.274-10.8 15.888 7.751a16.26 16.26 0 0 1-4.938 10.959Z" fill="#6C63FF"/><path d="M319.95 203.864c3.374-2.478 10.072-8.564 6.291-15.832-2.885-5.546-9.901-7.49-15.448-4.599l-75.503 39.438-24.625 12.859s-5.122 6.988 27.606-4.447l.12-.038 78.324-25.723c1.159-.38 2.25-.939 3.235-1.658Z" fill="#fff"/><path d="m342.843 173.245-23.138 11.281 5.276 10.815 23.139-11.282-5.277-10.814Z" fill="#fff"/><path d="m352.212 180.621-4.059-8.319-10.156 4.951 4.059 8.32 10.156-4.952Z" fill="#fff"/><path d="M238.391 231.238c-2.948-3.252-3.368-6.238-3.101-8.367l-24.625 12.859s-5.122 6.988 27.606-4.447l.12-.045ZM331.897 191.965l16.224-7.91-5.274-10.8-15.888 7.751a16.26 16.26 0 0 0 4.938 10.959Z" fill="#6C63FF"/><path d="M365.133 455.736h-23.608l7.498-277.957h8.611l7.499 277.957Z" fill="#fff"/><path d="M354.304 182.219a7.866 7.866 0 0 0 7.868-7.864 7.867 7.867 0 0 0-7.868-7.865 7.866 7.866 0 1 0 0 15.729Z" fill="#6C63FF"/><path d="M540.592 115.895c-.502 2.783-2.218 8.659-7.759 8.513a7.748 7.748 0 0 1-7.385-8.023l1.602-57.596.514-18.779s2.746-5.196 5.478 18.1v.082l7.582 55.27a7.786 7.786 0 0 1-.032 2.433Z" fill="#fff"/><path d="M536.9 121.48h-8.141v17.413h8.141V121.48Z" fill="#fff"/><path d="M536.023 134.757h-6.266v7.643h6.266v-7.643Z" fill="#fff"/><path d="M533.055 58.199c-2.853-.826-4.792-.197-6.005.597l.514-18.78s2.746-5.196 5.478 18.1l.013.083ZM536.9 126.683v12.197h-8.141v-11.95a10.992 10.992 0 0 1 8.141-.247Z" fill="#6C63FF"/><path d="M556.053 165.492c-2.281-1.67-6.818-5.787-4.257-10.704a7.739 7.739 0 0 1 10.453-3.113l51.081 26.682 16.656 8.697s3.47 4.746-18.67-3.011h-.083l-52.993-17.401a7.827 7.827 0 0 1-2.187-1.15Z" fill="#fff"/><path d="m540.58 144.783-3.568 7.314 15.656 7.634 3.568-7.315-15.656-7.633Z" fill="#fff"/><path d="m541.118 153.127 2.747-5.63-6.871-3.35-2.747 5.63 6.871 3.35Z" fill="#fff"/><path d="M611.252 184.017c1.995-2.198 2.281-4.218 2.097-5.66l16.656 8.697s3.47 4.746-18.67-3.011l-.083-.026ZM547.989 157.45l-11-5.356 3.565-7.312 10.759 5.241a11.022 11.022 0 0 1-3.324 7.427Z" fill="#6C63FF"/><path d="M509.586 165.492c2.282-1.67 6.819-5.787 4.258-10.704a7.742 7.742 0 0 0-10.454-3.113l-51.08 26.682-16.657 8.697s-3.469 4.746 18.671-3.011h.083l52.993-17.401a7.808 7.808 0 0 0 2.186-1.15Z" fill="#fff"/><path d="m525.082 144.785-15.656 7.634 3.569 7.314 15.656-7.633-3.569-7.315Z" fill="#fff"/><path d="m531.414 149.772-2.747-5.63-6.871 3.351 2.747 5.63 6.871-3.351Z" fill="#fff"/><path d="M454.407 184.017c-1.996-2.198-2.282-4.218-2.097-5.66l-16.657 8.697s-3.469 4.746 18.671-3.011l.083-.026ZM517.67 157.45l10.975-5.356-3.565-7.312-10.759 5.241a11.025 11.025 0 0 0 3.349 7.427Z" fill="#6C63FF"/><path d="m540.16 335.902-16.053 2.821 5.148-190.873h5.827l5.078 188.052Z" fill="#fff"/><path d="M532.832 150.855a5.324 5.324 0 1 0 0-10.647 5.324 5.324 0 1 0 0 10.647Z" fill="#6C63FF"/><path d="M176.355 115.895c-.502 2.783-2.218 8.659-7.76 8.513a7.74 7.74 0 0 1-7.378-8.023l1.595-57.596.515-18.779s2.745-5.196 5.478 18.1v.082l7.588 55.27a7.972 7.972 0 0 1-.038 2.433Z" fill="#fff"/><path d="M172.663 121.48h-8.141v17.413h8.141V121.48Z" fill="#fff"/><path d="M171.785 134.757h-6.265v7.643h6.265v-7.643Z" fill="#fff"/><path d="M168.818 58.199c-2.847-.826-4.792-.197-6.006.597l.515-18.78s2.746-5.196 5.478 18.1l.013.083ZM172.663 126.683v12.197h-8.141v-11.95a10.992 10.992 0 0 1 8.141-.247Z" fill="#6C63FF"/><path d="M191.835 165.492c-2.281-1.67-6.812-5.787-4.251-10.704a7.731 7.731 0 0 1 10.447-3.113l51.081 26.682 16.662 8.697s3.464 4.746-18.677-3.011h-.082l-52.987-17.401a7.86 7.86 0 0 1-2.193-1.15Z" fill="#fff"/><path d="m176.345 144.784-3.568 7.315 15.655 7.633 3.569-7.314-15.656-7.634Z" fill="#fff"/><path d="m176.879 153.125 2.747-5.63-6.871-3.35-2.747 5.63 6.871 3.35Z" fill="#fff"/><path d="M247.015 184.017c1.995-2.198 2.281-4.218 2.097-5.66l16.663 8.697s3.463 4.746-18.678-3.011l-.082-.026ZM183.752 157.45l-10.975-5.356 3.571-7.312 10.753 5.241a10.997 10.997 0 0 1-3.349 7.427Z" fill="#6C63FF"/><path d="M145.349 165.492c2.288-1.67 6.819-5.787 4.258-10.704a7.742 7.742 0 0 0-10.454-3.113l-51.08 26.682-16.657 8.697s-3.47 4.746 18.671-3.011h.083l52.993-17.401a7.808 7.808 0 0 0 2.186-1.15Z" fill="#fff"/><path d="m160.843 144.783-15.656 7.634 3.569 7.314 15.656-7.633-3.569-7.315Z" fill="#fff"/><path d="m167.182 149.776-2.747-5.63-6.871 3.35 2.747 5.63 6.871-3.35Z" fill="#fff"/><path d="M90.17 184.017c-1.99-2.198-2.275-4.218-2.097-5.66l-16.657 8.697s-3.47 4.746 18.671-3.011l.083-.026ZM153.433 157.45l10.974-5.356-3.565-7.312-10.759 5.241a11.051 11.051 0 0 0 3.35 7.427Z" fill="#6C63FF"/><path d="M175.922 335.902h-15.976l5.078-188.052h5.821l5.077 188.052Z" fill="#fff"/><path d="M168.595 150.855a5.324 5.324 0 1 0 0-10.647 5.324 5.324 0 1 0 0 10.647Z" fill="#6C63FF"/><path d="M707.103 387.278a93.84 93.84 0 0 1-33.598 49.804 93.891 93.891 0 0 1-56.928 19.232H138.009a119.683 119.683 0 0 1-62.637-17.743 119.634 119.634 0 0 1-44.074-47.901s69.364-95.916 249.506-33.251c149.556 52.024 218.538 2.827 237.673-15.38a21.15 21.15 0 0 1 15.569-5.769c36.649 1.735 163.601 10.616 173.076 50.995l-.019.013Z" fill="#fff"/><path opacity=".1" d="M132.9 461.994c42.79 0 77.479-4.07 77.479-9.091 0-5.021-34.689-9.091-77.479-9.091s-77.479 4.07-77.479 9.091c0 5.021 34.689 9.091 77.479 9.091Z" fill="#6C63FF"/><path d="M171.684 444.79s-5.027-.591-8.3-3.03l-.247-.197c.197-.297.342-.626.425-.972a4.9 4.9 0 0 1-.54-2.211 4.96 4.96 0 0 0-.432-2.096v-3.571s-1.087-1.156-1.195-4.097c-.108-2.942-.216-17.439-.216-17.439a6.832 6.832 0 0 1-.108-2.312c.108-1.678.108-2.307.108-2.307a6.362 6.362 0 0 1-.324-3.049c.324-1.27-.762-2.732-.762-2.732l1.626-7.979s.903-27.565-1.722-35.875v-.152c.223-5.362-3.031-14.288-1.188-20.482 1.843-6.194 2.059-7.566 2.059-7.566s-8.122-20.38-10.168-25.208c-1.417-3.329-2.885-6.988-4.334-9.072a10.95 10.95 0 0 0-.381-.515 4.734 4.734 0 0 0-.21-.254c.443-.738.71-1.568.782-2.426.114-1.5-.102-3.228.991-4.289a8.306 8.306 0 0 1 1.341-.895 5.385 5.385 0 0 0 2.383-5.146c-.229-1.582-1.138-2.897-2.173-4.174a11.674 11.674 0 0 0-3.572-10.686v-.597a6.685 6.685 0 0 0-1.271-4.059l.305.216a15.642 15.642 0 0 0-.515-.445 3.552 3.552 0 0 0-.851-.635 15.883 15.883 0 0 0-16.523-.858 9.23 9.23 0 0 0-3.222 2.865c-1.696 2.618-1.271 6.004-2.148 8.977-.851 2.84-2.859 5.19-4.524 7.668-1.665 2.477-3.057 5.412-2.428 8.309.451 2.103 1.951 3.99 1.907 6.144a4.85 4.85 0 0 1-1.319 3.015 4.847 4.847 0 0 1-2.939 1.482h-.057c-.211.033-.423.05-.636.051 2.021 1.391 4.531 1.906 6.99 2.23-.05.191-.101.381-.146.578-1.989 7.503-3.762 17.032-3.762 17.032s1.189 9.657-1.303 17.223c-2.491 7.566-2.167 23.112-2.167 23.112s6.934-3.577 7.366-1.271c.432 2.306 0 2.941 0 2.941s1.417.718 3.082 1.354l-.07.921-.305 4.129a4.606 4.606 0 0 0 .381 2.541c.598 1.156 0 4.307 0 4.307s-.508.318 0 1.792c.509 1.474-.4 3.57-.4 3.57s-.636 7.878-.718 9.53c-.083 1.651-2.167 6.41-2.167 6.41s1.843 2.306 0 2.623c-1.843.318-2.059 3.177-2.059 3.177s-2.167 1.785-2.167 2.414c0 0-9.749 9.879-12.024 26.155 0 0-2.275 2.103-1.95 4.097.184 1.131-.185 1.519-.54 1.646.4.051.838.311.635 1.27-.325 1.677-1.189 5.254-1.189 5.254h.153c-1.773 2.052-4.366 5.489-4.76 8.507 0 .127-.013.254-.038.381l-.979 2.204 8.56 3.812.756-1.156s3.813 4.307 8.128 5.247a10.89 10.89 0 0 0 2.269.248 20.04 20.04 0 0 0 7.029-1.404s3.139-3.882-4.989-4.619c0 0-4.76-5.463-4.328-7.775.163-.973.263-1.956.299-2.942v-.635l.553.082.102-1.759a1.51 1.51 0 0 0 .324-1.055c0-.73-.636-.838 0-1.27.635-.432.635 0 .635-1.049 0-1.048-.432-.737.54-1.785.973-1.048-.108-2.941-.108-2.941s2.275-1.684 2.167-3.888c-.108-2.205 7.258-16.175 8.77-16.702 1.513-.527 1.627-3.259 1.627-3.259s2.059.419 2.707 0c.648-.419 2.707-3.672 2.707-3.672s8.262-20.799 8.344-28.677l.54-1.785s3.146 4.098 2.708 7.039c-.439 2.942 2.402 5.038 2.402 5.038v8.932a26.07 26.07 0 0 1 .521 4.727c-.108 1.467 1.271 2.941.75 4.199-.521 1.258 0 3.469 0 3.469s-.115 2.941 0 3.779c.114.839-.426 10.502 2.396 14.707 0 0 1.188 3.043 0 5.038-1.189 1.995 1.08 3.996 1.08 3.996s-1.405 2.306 0 3.99a5.163 5.163 0 0 1 1.01 3.723c-.565 2.134-.985 4.936-.038 6.886v.045l.254 2.998 8.3-.635v-1.677s5.668 1.505 10.949.686c2.847-.439 5.58-1.557 7.251-3.945.045.031 3.4-5.743-5.7-3.539Z" fill="url('#paint0_linear_1_858')"/><path d="M175.891 448.411c-1.614 2.383-4.252 3.494-6.991 3.933-5.084.813-10.568-.686-10.568-.686v1.689l-8.013.636-.248-2.986v-.051c-.928-1.969-.502-4.815.057-6.956.269-1.011.6-2.004.991-2.974 0 0 6.902-5.857 9.202-1.461a7.124 7.124 0 0 0 2.027 2.313c3.178 2.427 8.014 3.017 8.014 3.017 8.77-2.223 5.529 3.526 5.529 3.526Z" fill="#65617D"/><path opacity=".1" d="M154.551 442.662s0 5.438 3.972 5.336c3.972-.101 4.505-2.166 3.247-3.564a17.163 17.163 0 0 1-2.199-3.233l-5.02 1.461Z" fill="#000"/><path d="M120.349 459.065a18.882 18.882 0 0 1-6.806 1.398 10.714 10.714 0 0 1-2.193-.242c-4.181-.946-7.841-5.235-7.841-5.235l-.731 1.157-8.262-3.768.934-2.204.039-.375c.38-3.005 2.885-6.429 4.601-8.475.934-1.111 1.639-1.81 1.639-1.81l9.939 1.461s.038 1.271 0 2.821a22.474 22.474 0 0 1-.292 2.928c-.413 2.3 4.181 7.738 4.181 7.738 7.823.75 4.792 4.606 4.792 4.606Z" fill="#65617D"/><path d="M100.471 434.784c-.168.057-.347.07-.521.038a1.55 1.55 0 0 1 .521-.038Z" fill="#444053"/><path opacity=".1" d="M111.668 440.991s.038 1.271 0 2.821l-11.693-1.906s.057-.222.14-.591c.934-1.112 1.639-1.81 1.639-1.81l9.914 1.486ZM162.329 441.842c-1.766 4.085-12.277 3.12-12.277 3.12a5.05 5.05 0 0 0 .057-.998c.269-1.01.6-2.003.991-2.973 0 0 6.902-5.857 9.202-1.461a7.12 7.12 0 0 0 2.027 2.312Z" fill="#000"/><path d="M162.501 440.68c-1.042 4.701-12.449 3.659-12.449 3.659a5.406 5.406 0 0 0-.941-3.977c-1.36-1.671 0-3.97 0-3.97s-2.199-1.989-1.042-3.977c1.157-1.989 0-5.019 0-5.019-2.726-4.18-2.199-13.805-2.313-14.612-.115-.806 0-3.761 0-3.761s-.515-2.198 0-3.456c.515-1.257-.826-2.719-.725-4.18a26.967 26.967 0 0 0-.502-4.707v-8.894s-2.739-2.09-2.319-5.019c.419-2.929-2.618-6.988-2.618-6.988l-.522 1.779c-.101 7.839-8.051 28.543-8.051 28.543s-1.989 3.246-2.618 3.666c-.63.419-2.612 0-2.612 0s-.108 2.719-1.57 3.24c-1.462.521-8.579 14.427-8.471 16.625.108 2.198-2.097 3.869-2.097 3.869s1.048 1.906.108 2.929c-.941 1.023-.528.73-.528 1.779 0 1.048 0 .635-.635 1.041-.636.407 0 .528 0 1.271.03.375-.084.747-.318 1.042l-.095 1.76-12.246-1.963s.839-3.558 1.15-5.235c.185-.979-.241-1.239-.635-1.271.349-.127.705-.514.527-1.632-.318-1.989 1.907-4.079 1.907-4.079 2.198-16.213 11.61-26.047 11.61-26.047 0-.635 2.091-2.401 2.091-2.401s.21-2.827 1.989-3.138c1.779-.312 0-2.618 0-2.618s1.989-4.701 2.091-6.353c.101-1.651.692-9.529.692-9.529s.877-2.09.388-3.551c-.489-1.461 0-1.779 0-1.779s.591-3.138 0-4.288a4.71 4.71 0 0 1-.369-2.51l.299-4.116.432-6.131s32.544-5.616 36.128-1.124c.388.555.674 1.174.845 1.829 2.542 8.259 1.665 35.71 1.665 35.71l-1.57 7.947s1.049 1.468.738 2.719a6.45 6.45 0 0 0 .311 3.037s0 .635-.108 2.3a6.964 6.964 0 0 0 .108 2.299s.102 14.428.21 17.356c.108 2.929 1.15 4.079 1.15 4.079v3.558c.282.66.423 1.372.413 2.09a4.926 4.926 0 0 0 .502 2.198Z" fill="#444053"/><path opacity=".1" d="M113.543 460.475a10.644 10.644 0 0 1-2.193-.241c-4.181-.947-7.841-5.235-7.841-5.235l-.731 1.156-8.262-3.767.934-2.217.039-.375 8.541 4.352s6.818 3.265 9.513 6.327ZM168.888 452.344c-5.084.813-10.569-.686-10.569-.686v1.689l-8.013.636-.248-2.986c2.542.044 6.628.089 8.408-.051a39.04 39.04 0 0 1 10.422 1.398ZM104.564 432.091c.417-.038.838.016 1.232.159.413.246.804.526 1.17.838.274.146.534.319.775.515.305.298.432.743.737 1.042.559.552 1.481.425 2.224.692.083 0 .172.07.185.153.012.082-.058.152-.127.203a1.218 1.218 0 0 1-1.208 0 4.815 4.815 0 0 1-1.01-.763 6.84 6.84 0 0 0-1.964-1.219c-.985-.388-2.701-.496-3.324-1.461.293-.223.928-.153 1.31-.159ZM103.724 434.289c.222.062.435.149.636.26l1.074.54a3.977 3.977 0 0 1-2.192-.489 6.28 6.28 0 0 1-.693-.33c.39-.059.787-.053 1.175.019ZM105.142 436.118c.234-.009.469.01.699.058.404.141.779.357 1.105.635a4.322 4.322 0 0 0 2.771.959c-.198.093-.418.13-.635.108h-2.25a2.99 2.99 0 0 1-1.678-.387c-.381-.185-1.957-.636-1.97-1.163-.012-.527 1.576-.21 1.958-.21ZM156.33 438.787a12.58 12.58 0 0 0 2.072.057 3.965 3.965 0 0 0 2.046-.635c.604-.464.477-.941-.292-.972a5.47 5.47 0 0 0-2.065.508 6.208 6.208 0 0 0-.966.489c-.159.07-.68.559-.795.553ZM158.834 439.93c-.063.254-.33.394-.572.489a6.543 6.543 0 0 1-1.843.407c-.158 0-.603 0-.546-.248.057-.248.718-.171.877-.19a15.936 15.936 0 0 0 2.084-.458ZM152.556 439.517a4.254 4.254 0 0 1 2.542.502.123.123 0 0 1 .05.064.053.053 0 0 1 .007.028.06.06 0 0 1-.007.029.863.863 0 0 1-.356.357.862.862 0 0 1-.495.1 3.954 3.954 0 0 1-.992-.248 5.148 5.148 0 0 0-1.639-.247 4.202 4.202 0 0 1-.744 0c-.737-.127-.495-.426.07-.49.519-.059 1.041-.09 1.564-.095ZM123.819 398.427a6.47 6.47 0 0 0-3.572-1.169 5.083 5.083 0 0 1 3.572 1.169ZM122.84 394.209a5.154 5.154 0 0 1 2.669.762l-.966-.267a9.137 9.137 0 0 0-1.786-.375c-.349-.032-.699 0-1.048-.038-.35-.038-.794-.102-1.188-.114.768.038 1.544-.007 2.319.032ZM125.986 396.216c.292.057.635.184.699.483 0-.178-2.072-.763-2.326-.845-.426-.153-1.792-.75-2.104-.337 1.201.324 2.498.445 3.731.699ZM128.896 386.928a8.776 8.776 0 0 0 3.604-2.312 2.86 2.86 0 0 1-1.329 2.35 7.488 7.488 0 0 1-2.624.978c-.928.159-1.833.43-2.695.807-.413.21-1.703 1.43-2.11 1.366-.514-.076.306-.889.496-1.035 1.36-1.061 3.082-1.531 4.658-2.154ZM154.526 400.491c-.445-.152-5.847.896-5.516-.152.203-.635 1.957-.407 2.395-.387 1.061.029 2.112.211 3.121.539Z" fill="#000"/><path d="M148.705 275.467a11.923 11.923 0 0 1-22.908 4.628 11.916 11.916 0 0 1 4.271-14.477 11.927 11.927 0 0 1 15.04 1.317 11.837 11.837 0 0 1 3.597 8.532Z" fill="#FBBEBE"/><path d="M142.941 280.378s-3.871 11.295-1.672 13.595c2.199 2.3-15.798 3.659-15.798 3.659s7.53-13.487 6.8-16.835c-.731-3.348 10.67-.419 10.67-.419Z" stroke="#6C63FF" stroke-miterlimit="10"/><path opacity=".1" d="M159.057 357.419v.788c-.21 5.336-9.73 16.104-11.928 14.325-2.199-1.778-17.159-5.336-17.159-5.336s-2.198-3.45-4.499-3.45a11.747 11.747 0 0 1-3.781-.978l.432-6.13s32.531-5.572 36.115-1.08c.382.566.66 1.197.82 1.861Z" fill="#000"/><path d="M159.05 357.235c-.108 2.674-2.542 6.708-5.23 9.847-2.688 3.138-5.598 5.362-6.698 4.447a10.546 10.546 0 0 0-2.593-1.226c-4.95-1.824-14.559-4.111-14.559-4.111s-2.199-3.449-4.499-3.449-6.692-2.3-6.692-2.3.42-.635 0-2.929c-.419-2.293-7.111 1.271-7.111 1.271s-.318-15.476 2.091-23.01c2.408-7.535 1.271-17.153 1.271-17.153s1.722-9.478 3.59-16.969c1.125-4.491 2.307-8.258 3.21-8.855 2.408-1.57 14.959 0 14.959 0s5.23.101 7.219.635c.618.241 1.145.67 1.506 1.226.121.165.248.337.369.521 1.398 2.096 2.821 5.718 4.188 9.027 1.989 4.809 9.837 25.094 9.837 25.094s-.21 1.36-1.989 7.528c-1.779 6.169 1.341 15.076 1.131 20.406Z" fill="#65617D"/><path d="m150.052 363.403 3.768 3.672s3.451 11.906-1.048 10.864c-4.5-1.042-8.262-7.624-8.262-7.624l5.542-6.912Z" fill="#FBBEBE"/><path opacity=".1" d="M159.571 330.254c-8.896-.102-11.191-12.547-11.191-12.547s-.635-12.337-1.779-14.611c-.635-1.271-.921-4.397-1.049-6.938 1.399 2.097 2.816 5.718 4.188 9.028 1.989 4.783 9.831 25.068 9.831 25.068Z" fill="#000"/><path d="M159.889 329.314c-8.897-.102-11.184-12.553-11.184-12.553s-.636-12.338-1.78-14.612c-.635-1.271-.921-4.396-1.048-6.937 1.398 2.096 2.821 5.717 4.188 9.027 1.976 4.79 9.824 25.075 9.824 25.075Z" fill="#65617D"/><path opacity=".1" d="M143.964 298.617s-2.618-7.109-6.908 0c-4.289 7.109-4.391 16.104-4.391 16.104l-.731 19.656s1.36 2.617 1.309 4.079c-.051 1.461 2.542 5.647 2.542 5.647s.636 8.259 3.031 9.619l2.301 6.797s.108 4.498 1.678 6.277c1.569 1.779.743 4.523.743 4.523l9.297-3.253s-1.048.375 0-2.433c1.049-2.808-.635-6.473-.635-6.473s-5.961-12.967-6.692-14.847c-.731-1.88-1.779-4.079-1.36-6.277.42-2.198.083-25.513.636-29.064.553-3.551-.82-10.355-.82-10.355Z" fill="#000"/><path d="M144.93 297.632s-2.619-7.109-6.908 0c-4.29 7.109-4.391 16.105-4.391 16.105l-.731 19.655s1.36 2.618 1.309 4.079c-.051 1.461 2.542 5.648 2.542 5.648s.635 8.258 3.031 9.618l2.301 6.798s.108 4.497 1.677 6.276c1.57 1.779.75 4.523.75 4.523l9.291-3.259s-1.048.382 0-2.426c1.049-2.808-.635-6.474-.635-6.474s-5.961-12.966-6.692-14.847c-.731-1.88-1.779-4.078-1.36-6.276.419-2.198.089-25.513.636-29.071.546-3.558-.82-10.349-.82-10.349Z" fill="#444053"/><path opacity=".1" d="M145.108 359.122c.395.047.78.16 1.137.336.286.153.534.375.814.534.328.185.697.285 1.074.292-.42 0-.839.045-1.271.051a2.245 2.245 0 0 1-.769-.095 3.17 3.17 0 0 1-.636-.426 3.44 3.44 0 0 0-.832-.457c-.223-.096-.464-.127-.56-.356a6.41 6.41 0 0 1 1.043.121ZM148.647 361.93c.394 0 .788-.089 1.189-.115a9.82 9.82 0 0 1 1.722.089 4.854 4.854 0 0 1-2.72.483 1.627 1.627 0 0 0-.82 0c-.292.121-1.137 1.08-1.214.229-.076-.852 1.36-.667 1.843-.686ZM143.837 262.92l-1.487-1.105c.162.055.32.125.47.209.317.177.604.402.851.667.166.14.331.292.49.439l-.324-.21ZM145.527 294.672a3.694 3.694 0 0 1-1.271 1.55 2.603 2.603 0 0 1-1.118.432 4.379 4.379 0 0 1-1.691-.178 21.059 21.059 0 0 1-2.052-.635 33.94 33.94 0 0 0-4.036-1.373c-2.09-.476-4.524-.305-6.024 1.22-1.316 1.341-1.64 3.424-2.955 4.765-1.76 1.791-4.646 1.683-7.143 1.334l-.585-.083c1.125-4.491 2.307-8.258 3.21-8.856 2.408-1.569 14.959 0 14.959 0s5.23.102 7.219.636a3.165 3.165 0 0 1 1.487 1.188ZM124.848 275.467a11.923 11.923 0 0 1 20.247-8.532c.038 2.077-.413 4.206.171 6.207.541 1.861 1.907 3.361 3.14 4.911a11.926 11.926 0 0 1-20.511 5.362 11.912 11.912 0 0 1-3.047-7.948Z" fill="#000"/><path d="M144.129 262.507a14.884 14.884 0 0 0-17.292-1.944 8.947 8.947 0 0 0-3.113 2.853c-1.64 2.611-1.221 5.978-2.078 8.938-.814 2.827-2.758 5.165-4.366 7.623-1.608 2.459-2.949 5.394-2.345 8.259.438 2.097 1.906 3.977 1.855 6.118a4.746 4.746 0 0 1-4.594 4.511c2.021 1.429 4.544 1.905 6.99 2.255 2.447.349 5.376.457 7.143-1.341 1.316-1.334 1.64-3.424 2.955-4.758 1.5-1.531 3.934-1.703 6.025-1.22 2.09.483 4.016 1.493 6.088 2.033a4.491 4.491 0 0 0 1.69.172c1.786-.242 2.822-2.224 2.961-4.015.115-1.493-.101-3.215.96-4.269a8.044 8.044 0 0 1 1.271-.896 5.406 5.406 0 0 0 2.294-5.121c-.489-3.544-4.328-5.755-5.332-9.192-.584-1.995-.133-4.123-.171-6.201-.038-2.077-.82-4.447-2.777-5.145" fill="#444053"/><path opacity=".1" d="M150.408 281.724c-.496-3.544-4.334-5.755-5.338-9.192-.585-1.995-.134-4.123-.166-6.201a6.804 6.804 0 0 0-1.271-4.04l.293.216a6.955 6.955 0 0 0-.496-.438 3.356 3.356 0 0 0-.82-.636c-.178-.133-.362-.254-.54-.374l.286.26-.292-.216a6.802 6.802 0 0 1 1.271 4.04c0 2.072-.42 4.206.165 6.201 1.004 3.437 4.842 5.648 5.338 9.192a5.422 5.422 0 0 1-2.3 5.121 7.872 7.872 0 0 0-1.271.896c-1.055 1.054-.846 2.776-.96 4.269-.14 1.791-1.176 3.773-2.955 4.015a4.53 4.53 0 0 1-1.697-.172c-2.071-.54-3.997-1.556-6.088-2.033-2.09-.476-4.518-.311-6.024 1.22-1.316 1.334-1.64 3.418-2.955 4.758-1.76 1.798-4.646 1.684-7.137 1.341a21.938 21.938 0 0 1-4.804-1.106c-.21.034-.423.051-.636.051 2.021 1.43 4.544 1.906 6.991 2.256 2.446.349 5.376.457 7.136-1.341 1.316-1.334 1.64-3.424 2.955-4.758 1.507-1.531 3.94-1.703 6.025-1.22 2.084.483 4.016 1.493 6.088 2.033a4.546 4.546 0 0 0 1.697.172c1.779-.242 2.815-2.224 2.955-4.016.114-1.492-.096-3.214.959-4.269a8.386 8.386 0 0 1 1.271-.895 5.41 5.41 0 0 0 2.32-5.134Z" fill="#000"/></g><defs><linearGradient id="paint0_linear_1_858" x1="135.594" y1="460.475" x2="135.594" y2="257.742" gradientUnits="userSpaceOnUse"><stop stop-color="gray" stop-opacity=".25"/><stop offset=".54" stop-color="gray" stop-opacity=".12"/><stop offset="1" stop-color="gray" stop-opacity=".1"/></linearGradient><clipPath id="clip0_1_858"><path fill="#fff" d="M0 0h727v462H0z"/></clipPath></defs></svg>