<svg width="544" height="468" fill="none" xmlns="http://www.w3.org/2000/svg"><path d="M30 10h476v349H30V10Z" fill="#D9D9D9"/><path d="M0 0h544v305H0V0Z"/><path d="M21 298c0-15.464 12.536-28 28-28h420c15.464 0 28 12.536 28 28v142c0 15.464-12.536 28-28 28H49c-15.464 0-28-12.536-28-28V298Z" fill="#034EA2"/><path d="M158.898 313.078V318h-14.355v-4.922h14.355Zm-12.187-23.516V318h-6.367v-28.438h6.367ZM171.008 289.562V318h-6.348v-28.438h6.348Zm8.652 0v4.942h-23.476v-4.942h23.476ZM191.809 318h-6.25l.039-4.922h6.211c1.419 0 2.617-.325 3.593-.976.977-.664 1.719-1.641 2.227-2.93.508-1.302.762-2.884.762-4.746v-1.309c0-1.406-.144-2.643-.43-3.711-.287-1.08-.71-1.985-1.27-2.715a5.238 5.238 0 0 0-2.089-1.64c-.821-.365-1.765-.547-2.832-.547h-6.329v-4.942h6.329c1.927 0 3.684.326 5.273.977a11.813 11.813 0 0 1 4.141 2.793c1.171 1.211 2.076 2.643 2.714 4.297.638 1.654.957 3.496.957 5.527v1.27c0 2.018-.319 3.86-.957 5.527-.638 1.654-1.543 3.086-2.714 4.297a11.986 11.986 0 0 1-4.122 2.773c-1.588.651-3.339.977-5.253.977Zm-2.637-28.438V318h-6.367v-28.438h6.367ZM215.109 289.562V318h-6.367v-28.438h6.367Zm11.192 11.993v4.922h-12.969v-4.922h12.969Zm1.25-11.993v4.942h-14.219v-4.942h14.219ZM246.984 289.562V318h-6.367v-28.438h6.367Zm11.192 11.993v4.922h-12.969v-4.922h12.969Zm1.25-11.993v4.942h-14.219v-4.942h14.219ZM274.191 312.902v-16.035h6.133V318h-5.742l-.391-5.098Zm.645-4.316 1.68-.039c0 1.419-.17 2.728-.508 3.926-.326 1.198-.82 2.239-1.485 3.125a6.813 6.813 0 0 1-2.441 2.07c-.964.482-2.09.723-3.379.723-1.042 0-1.999-.144-2.871-.43a5.817 5.817 0 0 1-2.227-1.387c-.625-.638-1.106-1.452-1.445-2.441-.338-1.003-.508-2.201-.508-3.594v-13.672h6.094v13.711c0 .547.065 1.016.195 1.406.144.378.332.69.567.938.247.247.547.43.898.547.365.117.762.176 1.192.176 1.08 0 1.927-.222 2.539-.665a3.554 3.554 0 0 0 1.308-1.816c.261-.768.391-1.628.391-2.578ZM290.266 301.379V318h-6.114v-21.133h5.743l.371 4.512Zm-.801 5.312-1.524.039c0-1.588.196-3.014.586-4.277.391-1.263.944-2.337 1.661-3.223a7.296 7.296 0 0 1 2.597-2.05c1.016-.469 2.136-.703 3.36-.703.989 0 1.894.143 2.714.429a5.11 5.11 0 0 1 2.11 1.387c.599.625 1.054 1.458 1.367 2.5.312 1.029.469 2.298.469 3.809V318h-6.133v-13.418c0-.885-.124-1.569-.371-2.051a2.078 2.078 0 0 0-1.094-1.015c-.469-.196-1.042-.293-1.719-.293-.716 0-1.328.143-1.836.429a3.434 3.434 0 0 0-1.25 1.153 5.37 5.37 0 0 0-.722 1.738 10.13 10.13 0 0 0-.215 2.148ZM319.094 313.273V288h6.133v30h-5.508l-.625-4.727Zm-13.164-5.585v-.411c0-1.601.175-3.06.527-4.375.365-1.328.892-2.467 1.582-3.418a7.225 7.225 0 0 1 2.598-2.226c1.028-.521 2.207-.781 3.535-.781 1.224 0 2.292.273 3.203.82.911.534 1.686 1.289 2.324 2.265.651.964 1.179 2.103 1.582 3.418a26.33 26.33 0 0 1 .918 4.239v.703a22.531 22.531 0 0 1-.918 4.082c-.403 1.263-.931 2.376-1.582 3.34-.638.95-1.419 1.699-2.344 2.246-.911.534-1.985.801-3.222.801-1.328 0-2.507-.267-3.535-.801a7.29 7.29 0 0 1-2.559-2.246c-.69-.964-1.217-2.097-1.582-3.399-.352-1.302-.527-2.721-.527-4.257Zm6.093-.411v.411c0 .833.059 1.608.176 2.324a6.62 6.62 0 0 0 .625 1.894c.287.547.664.977 1.133 1.289.469.3 1.042.45 1.719.45.911 0 1.66-.209 2.246-.625.586-.43 1.029-1.023 1.328-1.778.299-.755.456-1.634.469-2.637v-2.05c0-.834-.085-1.582-.254-2.246-.169-.664-.423-1.224-.762-1.68a3.143 3.143 0 0 0-1.23-1.035c-.495-.248-1.081-.371-1.758-.371-.664 0-1.231.156-1.699.468-.469.3-.853.723-1.153 1.27-.286.547-.501 1.191-.644 1.934-.13.729-.196 1.523-.196 2.382ZM335.715 296.867V318h-6.113v-21.133h6.113Zm-6.485-5.469c0-.885.313-1.608.938-2.168.625-.572 1.445-.859 2.461-.859 1.016 0 1.836.287 2.461.859.638.56.957 1.283.957 2.168 0 .873-.319 1.595-.957 2.168-.625.56-1.445.84-2.461.84-1.016 0-1.836-.28-2.461-.84-.625-.573-.938-1.295-.938-2.168ZM346.086 301.379V318h-6.113v-21.133h5.742l.371 4.512Zm-.801 5.312-1.523.039c0-1.588.195-3.014.586-4.277.39-1.263.944-2.337 1.66-3.223a7.296 7.296 0 0 1 2.597-2.05c1.016-.469 2.136-.703 3.36-.703.989 0 1.894.143 2.715.429.82.287 1.523.749 2.109 1.387.599.625 1.055 1.458 1.367 2.5.313 1.029.469 2.298.469 3.809V318h-6.133v-13.418c0-.885-.124-1.569-.371-2.051a2.074 2.074 0 0 0-1.094-1.015c-.468-.196-1.041-.293-1.718-.293-.717 0-1.329.143-1.836.429a3.418 3.418 0 0 0-1.25 1.153 5.349 5.349 0 0 0-.723 1.738c-.143.664-.215 1.38-.215 2.148ZM375.93 296.867h5.547v20.371c0 1.94-.443 3.588-1.329 4.942-.872 1.354-2.089 2.382-3.652 3.086-1.562.703-3.392 1.054-5.488 1.054-.912 0-1.862-.123-2.852-.371a10.98 10.98 0 0 1-2.793-1.074 7.053 7.053 0 0 1-2.187-1.797l2.597-3.594a7.055 7.055 0 0 0 2.149 1.641c.833.43 1.784.645 2.851.645.977 0 1.804-.176 2.481-.528a3.534 3.534 0 0 0 1.543-1.543c.364-.677.547-1.497.547-2.461v-15.429l.586-4.942Zm-14.121 10.821v-.411c0-1.601.195-3.06.586-4.375.39-1.328.957-2.467 1.699-3.418a7.822 7.822 0 0 1 2.715-2.226c1.067-.521 2.265-.781 3.593-.781 1.433 0 2.618.273 3.555.82.938.534 1.699 1.289 2.285 2.265.586.964 1.048 2.103 1.387 3.418.338 1.303.612 2.715.82 4.239v.703a26.533 26.533 0 0 1-.898 4.082c-.391 1.263-.899 2.376-1.524 3.34a7.022 7.022 0 0 1-2.343 2.246c-.925.534-2.032.801-3.321.801-1.315 0-2.5-.267-3.554-.801a8.029 8.029 0 0 1-2.715-2.246c-.742-.964-1.309-2.097-1.699-3.399-.391-1.302-.586-2.721-.586-4.257Zm6.093-.411v.411c0 .833.078 1.608.235 2.324.169.716.416 1.347.742 1.894.338.547.755.977 1.25 1.289.508.3 1.1.45 1.777.45.99 0 1.791-.209 2.403-.625.625-.43 1.08-1.023 1.367-1.778.299-.755.456-1.634.469-2.637v-2.05c0-.834-.085-1.582-.254-2.246-.17-.664-.424-1.224-.762-1.68a3.06 3.06 0 0 0-1.289-1.035c-.521-.248-1.152-.371-1.895-.371-.664 0-1.25.156-1.757.468-.508.3-.931.723-1.27 1.27-.339.547-.592 1.191-.762 1.934a10.541 10.541 0 0 0-.254 2.382ZM98.034 350.848v1.184h-3.04V362h-1.457v-9.968h-3.056v-1.184h7.553ZM104.178 353.072c.661 0 1.258.144 1.792.432a2.92 2.92 0 0 1 1.248 1.264c.309.565.464 1.253.464 2.064V362h-1.44v-4.96c0-.875-.219-1.541-.656-2-.438-.469-1.035-.704-1.792-.704-.768 0-1.382.24-1.84.72-.448.48-.672 1.179-.672 2.096V362h-1.456v-11.84h1.456v4.32a2.873 2.873 0 0 1 1.184-1.04 3.914 3.914 0 0 1 1.712-.368ZM118.06 357.28c0 .277-.016.571-.048.88h-7.008c.053.864.347 1.541.88 2.032.544.48 1.2.72 1.968.72.629 0 1.152-.144 1.568-.432.427-.299.725-.693.896-1.184h1.568a3.807 3.807 0 0 1-1.408 2.064c-.704.523-1.579.784-2.624.784-.832 0-1.579-.187-2.24-.56a3.984 3.984 0 0 1-1.536-1.584c-.373-.693-.56-1.493-.56-2.4 0-.907.181-1.701.544-2.384a3.781 3.781 0 0 1 1.52-1.568c.661-.373 1.419-.56 2.272-.56.832 0 1.568.181 2.208.544a3.7 3.7 0 0 1 1.472 1.504c.352.629.528 1.344.528 2.144Zm-1.504-.304c0-.555-.123-1.029-.368-1.424a2.316 2.316 0 0 0-1.008-.912 3.01 3.01 0 0 0-1.392-.32c-.736 0-1.365.235-1.888.704-.512.469-.805 1.12-.88 1.952h5.536ZM127.864 353.088c.757 0 1.418.165 1.984.496.576.331 1.002.747 1.28 1.248v-1.6h1.472v8.96c0 .8-.171 1.509-.512 2.128a3.629 3.629 0 0 1-1.472 1.472c-.63.352-1.366.528-2.208.528-1.152 0-2.112-.272-2.88-.816-.768-.544-1.222-1.285-1.36-2.224h1.44c.16.533.49.96.992 1.28.501.331 1.104.496 1.808.496.8 0 1.45-.251 1.952-.752.512-.501.768-1.205.768-2.112v-1.84c-.288.512-.715.939-1.28 1.28-.566.341-1.227.512-1.984.512a4.056 4.056 0 0 1-2.128-.576 4.033 4.033 0 0 1-1.488-1.616c-.363-.693-.544-1.483-.544-2.368 0-.896.181-1.68.544-2.352a3.938 3.938 0 0 1 1.488-1.584 4.148 4.148 0 0 1 2.128-.56Zm3.264 4.512c0-.661-.134-1.237-.4-1.728a2.758 2.758 0 0 0-1.088-1.12 2.851 2.851 0 0 0-1.488-.4c-.544 0-1.04.128-1.488.384a2.78 2.78 0 0 0-1.072 1.12c-.267.491-.4 1.067-.4 1.728 0 .672.133 1.259.4 1.76.266.491.624.869 1.072 1.136.448.256.944.384 1.488.384s1.04-.128 1.488-.384a2.87 2.87 0 0 0 1.088-1.136c.266-.501.4-1.083.4-1.744ZM138.884 362.144a4.538 4.538 0 0 1-2.24-.56 4.068 4.068 0 0 1-1.568-1.584c-.373-.693-.56-1.493-.56-2.4 0-.896.192-1.685.576-2.368a4.015 4.015 0 0 1 1.6-1.584c.672-.373 1.424-.56 2.256-.56.832 0 1.584.187 2.256.56.672.363 1.2.885 1.584 1.568.395.683.592 1.477.592 2.384 0 .907-.203 1.707-.608 2.4a4.114 4.114 0 0 1-1.616 1.584c-.683.373-1.44.56-2.272.56Zm0-1.28c.523 0 1.013-.123 1.472-.368a2.74 2.74 0 0 0 1.104-1.104c.288-.491.432-1.088.432-1.792s-.139-1.301-.416-1.792c-.277-.491-.64-.853-1.088-1.088a2.986 2.986 0 0 0-1.456-.368c-.533 0-1.024.123-1.472.368-.437.235-.789.597-1.056 1.088-.267.491-.4 1.088-.4 1.792 0 .715.128 1.317.384 1.808.267.491.619.859 1.056 1.104.437.235.917.352 1.44.352ZM148.559 360.656l2.72-7.424h1.552l-3.44 8.768h-1.696l-3.44-8.768h1.567l2.737 7.424ZM162.263 357.28c0 .277-.016.571-.048.88h-7.008c.054.864.347 1.541.88 2.032.544.48 1.2.72 1.968.72.63 0 1.152-.144 1.568-.432.427-.299.726-.693.896-1.184h1.568a3.802 3.802 0 0 1-1.408 2.064c-.704.523-1.578.784-2.624.784-.832 0-1.578-.187-2.24-.56a3.997 3.997 0 0 1-1.536-1.584c-.373-.693-.56-1.493-.56-2.4 0-.907.182-1.701.544-2.384a3.787 3.787 0 0 1 1.52-1.568c.662-.373 1.419-.56 2.272-.56.832 0 1.568.181 2.208.544a3.7 3.7 0 0 1 1.472 1.504c.352.629.528 1.344.528 2.144Zm-1.504-.304c0-.555-.122-1.029-.368-1.424a2.316 2.316 0 0 0-1.008-.912 3.01 3.01 0 0 0-1.392-.32c-.736 0-1.365.235-1.888.704-.512.469-.805 1.12-.88 1.952h5.536ZM165.641 354.656a2.81 2.81 0 0 1 1.088-1.168c.48-.277 1.061-.416 1.744-.416v1.504h-.384c-1.632 0-2.448.885-2.448 2.656V362h-1.456v-8.768h1.456v1.424ZM174.426 353.072c1.067 0 1.931.325 2.592.976.661.64.992 1.568.992 2.784V362h-1.44v-4.96c0-.875-.219-1.541-.656-2-.437-.469-1.035-.704-1.792-.704-.768 0-1.381.24-1.84.72-.448.48-.672 1.179-.672 2.096V362h-1.456v-8.768h1.456v1.248a2.898 2.898 0 0 1 1.168-1.04 3.703 3.703 0 0 1 1.648-.368ZM190.932 353.072c.683 0 1.291.144 1.824.432.534.277.955.699 1.264 1.264.31.565.464 1.253.464 2.064V362h-1.44v-4.96c0-.875-.218-1.541-.656-2-.426-.469-1.008-.704-1.744-.704-.757 0-1.36.245-1.808.736-.448.48-.672 1.179-.672 2.096V362h-1.44v-4.96c0-.875-.218-1.541-.656-2-.426-.469-1.008-.704-1.744-.704-.757 0-1.36.245-1.808.736-.448.48-.672 1.179-.672 2.096V362h-1.456v-8.768h1.456v1.264a2.886 2.886 0 0 1 1.152-1.056 3.57 3.57 0 0 1 1.616-.368c.736 0 1.387.165 1.952.496.566.331.987.816 1.264 1.456a2.878 2.878 0 0 1 1.216-1.44 3.588 3.588 0 0 1 1.888-.512ZM204.873 357.28c0 .277-.016.571-.048.88h-7.008c.053.864.346 1.541.88 2.032.544.48 1.2.72 1.968.72.629 0 1.152-.144 1.568-.432.426-.299.725-.693.896-1.184h1.568a3.807 3.807 0 0 1-1.408 2.064c-.704.523-1.579.784-2.624.784-.832 0-1.579-.187-2.24-.56a3.984 3.984 0 0 1-1.536-1.584c-.374-.693-.56-1.493-.56-2.4 0-.907.181-1.701.544-2.384a3.775 3.775 0 0 1 1.52-1.568c.661-.373 1.418-.56 2.272-.56.832 0 1.568.181 2.208.544.64.363 1.13.864 1.472 1.504.352.629.528 1.344.528 2.144Zm-1.504-.304c0-.555-.123-1.029-.368-1.424a2.327 2.327 0 0 0-1.008-.912 3.01 3.01 0 0 0-1.392-.32c-.736 0-1.366.235-1.888.704-.512.469-.806 1.12-.88 1.952h5.536ZM211.066 353.072c1.067 0 1.931.325 2.593.976.661.64.991 1.568.991 2.784V362h-1.44v-4.96c0-.875-.218-1.541-.655-2-.438-.469-1.035-.704-1.793-.704-.768 0-1.381.24-1.839.72-.448.48-.672 1.179-.672 2.096V362h-1.457v-8.768h1.457v1.248a2.898 2.898 0 0 1 1.168-1.04 3.698 3.698 0 0 1 1.647-.368ZM218.805 354.432v5.168c0 .427.091.731.272.912.181.171.496.256.944.256h1.072V362h-1.312c-.811 0-1.419-.187-1.824-.56-.405-.373-.608-.987-.608-1.84v-5.168h-1.136v-1.2h1.136v-2.208h1.456v2.208h2.288v1.2h-2.288ZM230.739 353.088c.757 0 1.418.165 1.984.496.576.331 1.002.747 1.28 1.248v-1.6h1.472v8.96c0 .8-.171 1.509-.512 2.128a3.629 3.629 0 0 1-1.472 1.472c-.63.352-1.366.528-2.208.528-1.152 0-2.112-.272-2.88-.816-.768-.544-1.222-1.285-1.36-2.224h1.44c.16.533.49.96.992 1.28.501.331 1.104.496 1.808.496.8 0 1.45-.251 1.952-.752.512-.501.768-1.205.768-2.112v-1.84c-.288.512-.715.939-1.28 1.28-.566.341-1.227.512-1.984.512a4.056 4.056 0 0 1-2.128-.576 4.033 4.033 0 0 1-1.488-1.616c-.363-.693-.544-1.483-.544-2.368 0-.896.181-1.68.544-2.352a3.938 3.938 0 0 1 1.488-1.584 4.148 4.148 0 0 1 2.128-.56Zm3.264 4.512c0-.661-.134-1.237-.4-1.728a2.758 2.758 0 0 0-1.088-1.12 2.851 2.851 0 0 0-1.488-.4c-.544 0-1.04.128-1.488.384a2.78 2.78 0 0 0-1.072 1.12c-.267.491-.4 1.067-.4 1.728 0 .672.133 1.259.4 1.76.266.491.624.869 1.072 1.136.448.256.944.384 1.488.384s1.04-.128 1.488-.384a2.87 2.87 0 0 0 1.088-1.136c.266-.501.4-1.083.4-1.744ZM239.391 354.656a2.81 2.81 0 0 1 1.088-1.168c.48-.277 1.061-.416 1.744-.416v1.504h-.384c-1.632 0-2.448.885-2.448 2.656V362h-1.456v-8.768h1.456v1.424ZM243.36 357.584c0-.896.181-1.68.544-2.352a3.952 3.952 0 0 1 1.488-1.584 4.148 4.148 0 0 1 2.128-.56c.768 0 1.435.165 2 .496.565.331.987.747 1.264 1.248v-1.6h1.472V362h-1.472v-1.632c-.288.512-.72.939-1.296 1.28-.565.331-1.227.496-1.984.496a3.973 3.973 0 0 1-2.112-.576 4.047 4.047 0 0 1-1.488-1.616c-.363-.693-.544-1.483-.544-2.368Zm7.424.016c0-.661-.133-1.237-.4-1.728a2.752 2.752 0 0 0-1.088-1.12 2.851 2.851 0 0 0-1.488-.4c-.544 0-1.04.128-1.488.384a2.786 2.786 0 0 0-1.072 1.12c-.267.491-.4 1.067-.4 1.728 0 .672.133 1.259.4 1.76.267.491.624.869 1.072 1.136.448.256.944.384 1.488.384s1.04-.128 1.488-.384a2.864 2.864 0 0 0 1.088-1.136c.267-.501.4-1.083.4-1.744ZM258.988 353.072c1.067 0 1.931.325 2.592.976.662.64.992 1.568.992 2.784V362h-1.44v-4.96c0-.875-.218-1.541-.656-2-.437-.469-1.034-.704-1.792-.704-.768 0-1.381.24-1.84.72-.448.48-.672 1.179-.672 2.096V362h-1.456v-8.768h1.456v1.248a2.905 2.905 0 0 1 1.168-1.04 3.706 3.706 0 0 1 1.648-.368ZM266.727 354.432v5.168c0 .427.09.731.272.912.181.171.496.256.944.256h1.072V362h-1.312c-.811 0-1.419-.187-1.824-.56-.406-.373-.608-.987-.608-1.84v-5.168h-1.136v-1.2h1.136v-2.208h1.456v2.208h2.288v1.2h-2.288ZM273.883 362.144c-.672 0-1.275-.112-1.808-.336-.533-.235-.955-.555-1.264-.96a2.598 2.598 0 0 1-.512-1.424h1.504c.043.437.245.795.608 1.072.373.277.859.416 1.456.416.555 0 .992-.123 1.312-.368.32-.245.48-.555.48-.928 0-.384-.171-.667-.512-.848-.341-.192-.869-.379-1.584-.56a13.017 13.017 0 0 1-1.6-.512 3.044 3.044 0 0 1-1.056-.784c-.288-.352-.432-.811-.432-1.376 0-.448.133-.859.4-1.232s.645-.667 1.136-.88c.491-.224 1.051-.336 1.68-.336.971 0 1.755.245 2.352.736s.917 1.163.96 2.016h-1.456a1.494 1.494 0 0 0-.56-1.104c-.331-.277-.779-.416-1.344-.416-.523 0-.939.112-1.248.336-.309.224-.464.517-.464.88 0 .288.091.528.272.72.192.181.427.331.704.448.288.107.683.229 1.184.368.629.171 1.141.341 1.536.512.395.16.731.405 1.008.736.288.331.437.763.448 1.296 0 .48-.133.912-.4 1.296s-.645.688-1.136.912c-.48.213-1.035.32-1.664.32ZM284.156 351.808a.958.958 0 0 1-.704-.288.958.958 0 0 1-.288-.704c0-.277.096-.512.288-.704a.958.958 0 0 1 .704-.288c.267 0 .491.096.672.288a.958.958 0 0 1 .288.704.958.958 0 0 1-.288.704.886.886 0 0 1-.672.288Zm.704 1.424V362h-1.456v-8.768h1.456ZM291.613 353.072c1.067 0 1.931.325 2.592.976.662.64.992 1.568.992 2.784V362h-1.44v-4.96c0-.875-.218-1.541-.656-2-.437-.469-1.034-.704-1.792-.704-.768 0-1.381.24-1.84.72-.448.48-.672 1.179-.672 2.096V362h-1.456v-8.768h1.456v1.248a2.905 2.905 0 0 1 1.168-1.04 3.706 3.706 0 0 1 1.648-.368ZM300.84 360.656l2.72-7.424h1.552l-3.44 8.768h-1.696l-3.44-8.768h1.568l2.736 7.424ZM314.544 357.28c0 .277-.016.571-.048.88h-7.008c.054.864.347 1.541.88 2.032.544.48 1.2.72 1.968.72.63 0 1.153-.144 1.569-.432.426-.299.725-.693.896-1.184h1.567a3.8 3.8 0 0 1-1.407 2.064c-.704.523-1.579.784-2.625.784-.832 0-1.578-.187-2.24-.56A3.997 3.997 0 0 1 306.56 360c-.373-.693-.56-1.493-.56-2.4 0-.907.182-1.701.544-2.384a3.784 3.784 0 0 1 1.521-1.568c.661-.373 1.418-.56 2.271-.56.832 0 1.568.181 2.208.544.64.363 1.131.864 1.473 1.504.352.629.527 1.344.527 2.144Zm-1.504-.304c0-.555-.122-1.029-.368-1.424a2.316 2.316 0 0 0-1.008-.912 3.01 3.01 0 0 0-1.392-.32c-.736 0-1.365.235-1.888.704-.512.469-.805 1.12-.88 1.952h5.536ZM320.738 353.072c1.067 0 1.931.325 2.592.976.662.64.992 1.568.992 2.784V362h-1.44v-4.96c0-.875-.218-1.541-.656-2-.437-.469-1.034-.704-1.792-.704-.768 0-1.381.24-1.84.72-.448.48-.672 1.179-.672 2.096V362h-1.456v-8.768h1.456v1.248a2.905 2.905 0 0 1 1.168-1.04 3.706 3.706 0 0 1 1.648-.368ZM328.477 354.432v5.168c0 .427.09.731.272.912.181.171.496.256.944.256h1.072V362h-1.312c-.811 0-1.419-.187-1.824-.56-.406-.373-.608-.987-.608-1.84v-5.168h-1.136v-1.2h1.136v-2.208h1.456v2.208h2.288v1.2h-2.288ZM336.353 362.144a4.538 4.538 0 0 1-2.24-.56 4.068 4.068 0 0 1-1.568-1.584c-.373-.693-.56-1.493-.56-2.4 0-.896.192-1.685.576-2.368a4.015 4.015 0 0 1 1.6-1.584c.672-.373 1.424-.56 2.256-.56.832 0 1.584.187 2.256.56.672.363 1.2.885 1.584 1.568.395.683.592 1.477.592 2.384 0 .907-.203 1.707-.608 2.4a4.114 4.114 0 0 1-1.616 1.584c-.683.373-1.44.56-2.272.56Zm0-1.28c.523 0 1.013-.123 1.472-.368a2.74 2.74 0 0 0 1.104-1.104c.288-.491.432-1.088.432-1.792s-.139-1.301-.416-1.792c-.277-.491-.64-.853-1.088-1.088a2.986 2.986 0 0 0-1.456-.368c-.533 0-1.024.123-1.472.368-.437.235-.789.597-1.056 1.088-.267.491-.4 1.088-.4 1.792 0 .715.128 1.317.384 1.808.267.491.619.859 1.056 1.104.437.235.917.352 1.44.352ZM344.219 354.656a2.81 2.81 0 0 1 1.088-1.168c.48-.277 1.062-.416 1.744-.416v1.504h-.384c-1.632 0-2.448.885-2.448 2.656V362h-1.456v-8.768h1.456v1.424ZM351.836 362.144c-.672 0-1.275-.112-1.808-.336-.533-.235-.955-.555-1.264-.96a2.598 2.598 0 0 1-.512-1.424h1.504c.043.437.245.795.608 1.072.373.277.859.416 1.456.416.555 0 .992-.123 1.312-.368.32-.245.48-.555.48-.928 0-.384-.171-.667-.512-.848-.341-.192-.869-.379-1.584-.56a13.017 13.017 0 0 1-1.6-.512 3.044 3.044 0 0 1-1.056-.784c-.288-.352-.432-.811-.432-1.376 0-.448.133-.859.4-1.232s.645-.667 1.136-.88c.491-.224 1.051-.336 1.68-.336.971 0 1.755.245 2.352.736s.917 1.163.96 2.016H353.5a1.494 1.494 0 0 0-.56-1.104c-.331-.277-.779-.416-1.344-.416-.523 0-.939.112-1.248.336-.309.224-.464.517-.464.88 0 .288.091.528.272.72.192.181.427.331.704.448.288.107.683.229 1.184.368.629.171 1.141.341 1.536.512.395.16.731.405 1.008.736.288.331.437.763.448 1.296 0 .48-.133.912-.4 1.296s-.645.688-1.136.912c-.48.213-1.035.32-1.664.32ZM360.813 357.584c0-.896.181-1.68.544-2.352a3.952 3.952 0 0 1 1.488-1.584 4.148 4.148 0 0 1 2.128-.56c.768 0 1.435.165 2 .496.565.331.987.747 1.264 1.248v-1.6h1.472V362h-1.472v-1.632c-.288.512-.72.939-1.296 1.28-.565.331-1.227.496-1.984.496a3.973 3.973 0 0 1-2.112-.576 4.047 4.047 0 0 1-1.488-1.616c-.363-.693-.544-1.483-.544-2.368Zm7.424.016c0-.661-.133-1.237-.4-1.728a2.752 2.752 0 0 0-1.088-1.12 2.851 2.851 0 0 0-1.488-.4c-.544 0-1.04.128-1.488.384a2.786 2.786 0 0 0-1.072 1.12c-.267.491-.4 1.067-.4 1.728 0 .672.133 1.259.4 1.76.267.491.624.869 1.072 1.136.448.256.944.384 1.488.384s1.04-.128 1.488-.384a2.864 2.864 0 0 0 1.088-1.136c.267-.501.4-1.083.4-1.744ZM377.891 350.16V362h-1.456v-11.84h1.456ZM381.125 351.808a.957.957 0 0 1-.704-.288.958.958 0 0 1-.288-.704c0-.277.096-.512.288-.704a.957.957 0 0 1 .704-.288.89.89 0 0 1 .672.288.958.958 0 0 1 .288.704.958.958 0 0 1-.288.704.89.89 0 0 1-.672.288Zm.704 1.424V362h-1.456v-8.768h1.456ZM394.854 353.072c.683 0 1.291.144 1.824.432.533.277.955.699 1.264 1.264.309.565.464 1.253.464 2.064V362h-1.44v-4.96c0-.875-.219-1.541-.656-2-.427-.469-1.008-.704-1.744-.704-.757 0-1.36.245-1.808.736-.448.48-.672 1.179-.672 2.096V362h-1.44v-4.96c0-.875-.219-1.541-.656-2-.427-.469-1.008-.704-1.744-.704-.757 0-1.36.245-1.808.736-.448.48-.672 1.179-.672 2.096V362h-1.456v-8.768h1.456v1.264a2.886 2.886 0 0 1 1.152-1.056 3.567 3.567 0 0 1 1.616-.368c.736 0 1.387.165 1.952.496.565.331.987.816 1.264 1.456a2.873 2.873 0 0 1 1.216-1.44 3.585 3.585 0 0 1 1.888-.512ZM401.547 351.808a.959.959 0 0 1-.705-.288.957.957 0 0 1-.287-.704c0-.277.095-.512.287-.704a.959.959 0 0 1 .705-.288.89.89 0 0 1 .672.288.958.958 0 0 1 .288.704.958.958 0 0 1-.288.704.89.89 0 0 1-.672.288Zm.703 1.424V362h-1.456v-8.768h1.456ZM406.508 354.432v5.168c0 .427.091.731.272.912.181.171.496.256.944.256h1.072V362h-1.312c-.811 0-1.419-.187-1.824-.56-.405-.373-.608-.987-.608-1.84v-5.168h-1.136v-1.2h1.136v-2.208h1.456v2.208h2.288v1.2h-2.288ZM418.56 357.28c0 .277-.016.571-.048.88h-7.008c.053.864.347 1.541.88 2.032.544.48 1.2.72 1.968.72.629 0 1.152-.144 1.568-.432.427-.299.725-.693.896-1.184h1.568a3.807 3.807 0 0 1-1.408 2.064c-.704.523-1.579.784-2.624.784-.832 0-1.579-.187-2.24-.56a3.984 3.984 0 0 1-1.536-1.584c-.373-.693-.56-1.493-.56-2.4 0-.907.181-1.701.544-2.384a3.781 3.781 0 0 1 1.52-1.568c.661-.373 1.419-.56 2.272-.56.832 0 1.568.181 2.208.544a3.7 3.7 0 0 1 1.472 1.504c.352.629.528 1.344.528 2.144Zm-1.504-.304c0-.555-.123-1.029-.368-1.424a2.316 2.316 0 0 0-1.008-.912 3.01 3.01 0 0 0-1.392-.32c-.736 0-1.365.235-1.888.704-.512.469-.805 1.12-.88 1.952h5.536ZM419.938 357.584c0-.896.181-1.68.544-2.352a3.952 3.952 0 0 1 1.488-1.584 4.18 4.18 0 0 1 2.144-.56c.683 0 1.317.16 1.904.48.587.309 1.035.72 1.344 1.232v-4.64h1.472V362h-1.472v-1.648c-.288.523-.715.955-1.28 1.296-.565.331-1.227.496-1.984.496a4.056 4.056 0 0 1-2.128-.576 4.047 4.047 0 0 1-1.488-1.616c-.363-.693-.544-1.483-.544-2.368Zm7.424.016c0-.661-.133-1.237-.4-1.728a2.752 2.752 0 0 0-1.088-1.12 2.851 2.851 0 0 0-1.488-.4c-.544 0-1.04.128-1.488.384a2.786 2.786 0 0 0-1.072 1.12c-.267.491-.4 1.067-.4 1.728 0 .672.133 1.259.4 1.76.267.491.624.869 1.072 1.136.448.256.944.384 1.488.384s1.04-.128 1.488-.384a2.864 2.864 0 0 0 1.088-1.136c.267-.501.4-1.083.4-1.744ZM96.493 378.848c.288-.501.714-.917 1.28-1.248.576-.341 1.242-.512 2-.512.778 0 1.482.187 2.112.56.64.373 1.141.901 1.504 1.584.362.672.544 1.456.544 2.352 0 .885-.182 1.675-.544 2.368a4.008 4.008 0 0 1-3.616 2.192c-.747 0-1.408-.165-1.984-.496-.566-.341-.998-.763-1.296-1.264v5.776h-1.456v-12.928h1.456v1.616Zm5.952 2.736c0-.661-.134-1.237-.4-1.728a2.758 2.758 0 0 0-1.088-1.12 2.946 2.946 0 0 0-1.488-.384c-.534 0-1.03.133-1.488.4-.448.256-.811.635-1.088 1.136-.267.491-.4 1.061-.4 1.712 0 .661.133 1.243.4 1.744.277.491.64.869 1.088 1.136.458.256.954.384 1.488.384.544 0 1.04-.128 1.488-.384a2.87 2.87 0 0 0 1.088-1.136c.266-.501.4-1.088.4-1.76ZM107.305 378.656a2.81 2.81 0 0 1 1.088-1.168c.48-.277 1.062-.416 1.744-.416v1.504h-.384c-1.632 0-2.448.885-2.448 2.656V386h-1.456v-8.768h1.456v1.424ZM115.642 386.144a4.538 4.538 0 0 1-2.24-.56 4.068 4.068 0 0 1-1.568-1.584c-.373-.693-.56-1.493-.56-2.4 0-.896.192-1.685.576-2.368a4.015 4.015 0 0 1 1.6-1.584c.672-.373 1.424-.56 2.256-.56.832 0 1.584.187 2.256.56.672.363 1.2.885 1.584 1.568.395.683.592 1.477.592 2.384 0 .907-.203 1.707-.608 2.4a4.114 4.114 0 0 1-1.616 1.584c-.683.373-1.44.56-2.272.56Zm0-1.28c.523 0 1.013-.123 1.472-.368a2.74 2.74 0 0 0 1.104-1.104c.288-.491.432-1.088.432-1.792s-.139-1.301-.416-1.792c-.277-.491-.64-.853-1.088-1.088a2.986 2.986 0 0 0-1.456-.368c-.533 0-1.024.123-1.472.368-.437.235-.789.597-1.056 1.088-.267.491-.4 1.088-.4 1.792 0 .715.128 1.317.384 1.808.267.491.619.859 1.056 1.104.437.235.917.352 1.44.352ZM123.508 378.848c.288-.501.715-.917 1.28-1.248.576-.341 1.243-.512 2-.512.779 0 1.483.187 2.112.56.64.373 1.142.901 1.504 1.584.363.672.544 1.456.544 2.352 0 .885-.181 1.675-.544 2.368a4 4 0 0 1-1.504 1.616 3.973 3.973 0 0 1-2.112.576c-.746 0-1.408-.165-1.984-.496-.565-.341-.997-.763-1.296-1.264v5.776h-1.456v-12.928h1.456v1.616Zm5.952 2.736c0-.661-.133-1.237-.4-1.728a2.745 2.745 0 0 0-1.088-1.12 2.946 2.946 0 0 0-1.488-.384c-.533 0-1.029.133-1.488.4-.448.256-.81.635-1.088 1.136-.266.491-.4 1.061-.4 1.712 0 .661.134 1.243.4 1.744.278.491.64.869 1.088 1.136.459.256.955.384 1.488.384.544 0 1.04-.128 1.488-.384a2.857 2.857 0 0 0 1.088-1.136c.267-.501.4-1.088.4-1.76ZM140.865 381.28c0 .277-.016.571-.048.88h-7.008c.053.864.346 1.541.88 2.032.544.48 1.2.72 1.968.72.629 0 1.152-.144 1.568-.432.426-.299.725-.693.896-1.184h1.568a3.807 3.807 0 0 1-1.408 2.064c-.704.523-1.579.784-2.624.784-.832 0-1.579-.187-2.24-.56a3.984 3.984 0 0 1-1.536-1.584c-.374-.693-.56-1.493-.56-2.4 0-.907.181-1.701.544-2.384a3.775 3.775 0 0 1 1.52-1.568c.661-.373 1.418-.56 2.272-.56.832 0 1.568.181 2.208.544.64.363 1.13.864 1.472 1.504.352.629.528 1.344.528 2.144Zm-1.504-.304c0-.555-.123-1.029-.368-1.424a2.327 2.327 0 0 0-1.008-.912 3.01 3.01 0 0 0-1.392-.32c-.736 0-1.366.235-1.888.704-.512.469-.806 1.12-.88 1.952h5.536ZM144.243 378.656a2.804 2.804 0 0 1 1.088-1.168c.48-.277 1.061-.416 1.744-.416v1.504h-.384c-1.632 0-2.448.885-2.448 2.656V386h-1.456v-8.768h1.456v1.424ZM150.531 378.432v5.168c0 .427.091.731.272.912.182.171.496.256.944.256h1.072V386h-1.312c-.81 0-1.418-.187-1.824-.56-.405-.373-.608-.987-.608-1.84v-5.168h-1.136v-1.2h1.136v-2.208h1.456v2.208h2.288v1.2h-2.288ZM162.136 377.232l-5.28 12.896h-1.504l1.728-4.224-3.536-8.672h1.616l2.752 7.104 2.72-7.104h1.504ZM169.321 378.656a2.804 2.804 0 0 1 1.088-1.168c.48-.277 1.061-.416 1.744-.416v1.504h-.384c-1.632 0-2.448.885-2.448 2.656V386h-1.456v-8.768h1.456v1.424ZM174.586 375.808a.957.957 0 0 1-.704-.288.958.958 0 0 1-.288-.704c0-.277.096-.512.288-.704a.957.957 0 0 1 .704-.288.89.89 0 0 1 .672.288.958.958 0 0 1 .288.704.958.958 0 0 1-.288.704.89.89 0 0 1-.672.288Zm.704 1.424V386h-1.456v-8.768h1.456ZM181.387 377.088c.757 0 1.419.165 1.984.496.576.331 1.003.747 1.28 1.248v-1.6h1.472v8.96c0 .8-.171 1.509-.512 2.128a3.623 3.623 0 0 1-1.472 1.472c-.629.352-1.365.528-2.208.528-1.152 0-2.112-.272-2.88-.816-.768-.544-1.221-1.285-1.36-2.224h1.44c.16.533.491.96.992 1.28.501.331 1.104.496 1.808.496.8 0 1.451-.251 1.952-.752.512-.501.768-1.205.768-2.112v-1.84c-.288.512-.715.939-1.28 1.28-.565.341-1.227.512-1.984.512a4.056 4.056 0 0 1-2.128-.576 4.047 4.047 0 0 1-1.488-1.616c-.363-.693-.544-1.483-.544-2.368 0-.896.181-1.68.544-2.352a3.952 3.952 0 0 1 1.488-1.584 4.148 4.148 0 0 1 2.128-.56Zm3.264 4.512c0-.661-.133-1.237-.4-1.728a2.752 2.752 0 0 0-1.088-1.12 2.851 2.851 0 0 0-1.488-.4c-.544 0-1.04.128-1.488.384a2.786 2.786 0 0 0-1.072 1.12c-.267.491-.4 1.067-.4 1.728 0 .672.133 1.259.4 1.76.267.491.624.869 1.072 1.136.448.256.944.384 1.488.384s1.04-.128 1.488-.384a2.864 2.864 0 0 0 1.088-1.136c.267-.501.4-1.083.4-1.744ZM192.936 377.072c.661 0 1.258.144 1.792.432a2.92 2.92 0 0 1 1.248 1.264c.309.565.464 1.253.464 2.064V386H195v-4.96c0-.875-.219-1.541-.656-2-.438-.469-1.035-.704-1.792-.704-.768 0-1.382.24-1.84.72-.448.48-.672 1.179-.672 2.096V386h-1.456v-11.84h1.456v4.32a2.873 2.873 0 0 1 1.184-1.04 3.914 3.914 0 0 1 1.712-.368ZM200.594 378.432v5.168c0 .427.091.731.272.912.181.171.496.256.944.256h1.072V386h-1.312c-.811 0-1.419-.187-1.824-.56-.405-.373-.608-.987-.608-1.84v-5.168h-1.136v-1.2h1.136v-2.208h1.456v2.208h2.288v1.2h-2.288ZM208.368 381.6c0-.907.181-1.696.544-2.368a3.909 3.909 0 0 1 1.504-1.584c.65-.373 1.392-.56 2.224-.56 1.077 0 1.962.261 2.656.784.704.523 1.168 1.248 1.392 2.176h-1.568a2.243 2.243 0 0 0-.88-1.264c-.427-.309-.96-.464-1.6-.464-.832 0-1.504.288-2.016.864-.512.565-.768 1.371-.768 2.416 0 1.056.256 1.872.768 2.448.512.576 1.184.864 2.016.864.64 0 1.173-.149 1.6-.448.426-.299.72-.725.88-1.28h1.568c-.235.896-.704 1.616-1.408 2.16-.704.533-1.584.8-2.64.8-.832 0-1.574-.187-2.224-.56a3.909 3.909 0 0 1-1.504-1.584c-.363-.683-.544-1.483-.544-2.4ZM218.086 381.584c0-.896.182-1.68.544-2.352a3.952 3.952 0 0 1 1.488-1.584 4.15 4.15 0 0 1 2.128-.56c.768 0 1.435.165 2 .496.566.331.987.747 1.264 1.248v-1.6h1.472V386h-1.472v-1.632c-.288.512-.72.939-1.296 1.28-.565.331-1.226.496-1.984.496a3.978 3.978 0 0 1-2.112-.576 4.047 4.047 0 0 1-1.488-1.616c-.362-.693-.544-1.483-.544-2.368Zm7.424.016c0-.661-.133-1.237-.4-1.728a2.745 2.745 0 0 0-1.088-1.12 2.851 2.851 0 0 0-1.488-.4c-.544 0-1.04.128-1.488.384a2.786 2.786 0 0 0-1.072 1.12c-.266.491-.4 1.067-.4 1.728 0 .672.134 1.259.4 1.76.267.491.624.869 1.072 1.136.448.256.944.384 1.488.384s1.04-.128 1.488-.384a2.857 2.857 0 0 0 1.088-1.136c.267-.501.4-1.083.4-1.744ZM230.899 374.16V386h-1.456v-11.84h1.456ZM234.836 374.16V386h-1.456v-11.84h1.456ZM245.318 381.28c0 .277-.016.571-.048.88h-7.008c.053.864.347 1.541.88 2.032.544.48 1.2.72 1.968.72.629 0 1.152-.144 1.568-.432.427-.299.725-.693.896-1.184h1.568a3.807 3.807 0 0 1-1.408 2.064c-.704.523-1.579.784-2.624.784-.832 0-1.579-.187-2.24-.56a3.984 3.984 0 0 1-1.536-1.584c-.373-.693-.56-1.493-.56-2.4 0-.907.181-1.701.544-2.384a3.781 3.781 0 0 1 1.52-1.568c.661-.373 1.419-.56 2.272-.56.832 0 1.568.181 2.208.544a3.7 3.7 0 0 1 1.472 1.504c.352.629.528 1.344.528 2.144Zm-1.504-.304c0-.555-.123-1.029-.368-1.424a2.316 2.316 0 0 0-1.008-.912 3.01 3.01 0 0 0-1.392-.32c-.736 0-1.365.235-1.888.704-.512.469-.805 1.12-.88 1.952h5.536ZM246.696 381.584c0-.896.181-1.68.544-2.352a3.938 3.938 0 0 1 1.488-1.584 4.178 4.178 0 0 1 2.144-.56c.682 0 1.317.16 1.904.48.586.309 1.034.72 1.344 1.232v-4.64h1.472V386h-1.472v-1.648c-.288.523-.715.955-1.28 1.296-.566.331-1.227.496-1.984.496a4.056 4.056 0 0 1-2.128-.576 4.033 4.033 0 0 1-1.488-1.616c-.363-.693-.544-1.483-.544-2.368Zm7.424.016c0-.661-.134-1.237-.4-1.728a2.758 2.758 0 0 0-1.088-1.12 2.851 2.851 0 0 0-1.488-.4c-.544 0-1.04.128-1.488.384a2.78 2.78 0 0 0-1.072 1.12c-.267.491-.4 1.067-.4 1.728 0 .672.133 1.259.4 1.76.266.491.624.869 1.072 1.136.448.256.944.384 1.488.384s1.04-.128 1.488-.384a2.87 2.87 0 0 0 1.088-1.136c.266-.501.4-1.083.4-1.744ZM261.774 381.584c0-.896.181-1.68.544-2.352a3.952 3.952 0 0 1 1.488-1.584 4.148 4.148 0 0 1 2.128-.56c.768 0 1.435.165 2 .496.565.331.987.747 1.264 1.248v-1.6h1.472V386h-1.472v-1.632c-.288.512-.72.939-1.296 1.28-.565.331-1.227.496-1.984.496a3.973 3.973 0 0 1-2.112-.576 4.047 4.047 0 0 1-1.488-1.616c-.363-.693-.544-1.483-.544-2.368Zm7.424.016c0-.661-.133-1.237-.4-1.728a2.752 2.752 0 0 0-1.088-1.12 2.851 2.851 0 0 0-1.488-.4c-.544 0-1.04.128-1.488.384a2.786 2.786 0 0 0-1.072 1.12c-.267.491-.4 1.067-.4 1.728 0 .672.133 1.259.4 1.76.267.491.624.869 1.072 1.136.448.256.944.384 1.488.384s1.04-.128 1.488-.384a2.864 2.864 0 0 0 1.088-1.136c.267-.501.4-1.083.4-1.744ZM278.852 378.848c.288-.501.715-.917 1.28-1.248.576-.341 1.243-.512 2-.512.779 0 1.483.187 2.112.56.64.373 1.141.901 1.504 1.584.363.672.544 1.456.544 2.352 0 .885-.181 1.675-.544 2.368a4.008 4.008 0 0 1-1.504 1.616 3.973 3.973 0 0 1-2.112.576c-.747 0-1.408-.165-1.984-.496-.565-.341-.997-.763-1.296-1.264v5.776h-1.456v-12.928h1.456v1.616Zm5.952 2.736c0-.661-.133-1.237-.4-1.728a2.752 2.752 0 0 0-1.088-1.12 2.946 2.946 0 0 0-1.488-.384c-.533 0-1.029.133-1.488.4-.448.256-.811.635-1.088 1.136-.267.491-.4 1.061-.4 1.712 0 .661.133 1.243.4 1.744.277.491.64.869 1.088 1.136.459.256.955.384 1.488.384.544 0 1.04-.128 1.488-.384a2.864 2.864 0 0 0 1.088-1.136c.267-.501.4-1.088.4-1.76ZM287.665 381.584c0-.896.181-1.68.544-2.352a3.938 3.938 0 0 1 1.488-1.584 4.148 4.148 0 0 1 2.128-.56c.768 0 1.434.165 2 .496.565.331.986.747 1.264 1.248v-1.6h1.472V386h-1.472v-1.632c-.288.512-.72.939-1.296 1.28-.566.331-1.227.496-1.984.496a3.973 3.973 0 0 1-2.112-.576 4.033 4.033 0 0 1-1.488-1.616c-.363-.693-.544-1.483-.544-2.368Zm7.424.016c0-.661-.134-1.237-.4-1.728a2.758 2.758 0 0 0-1.088-1.12 2.851 2.851 0 0 0-1.488-.4c-.544 0-1.04.128-1.488.384a2.78 2.78 0 0 0-1.072 1.12c-.267.491-.4 1.067-.4 1.728 0 .672.133 1.259.4 1.76.266.491.624.869 1.072 1.136.448.256.944.384 1.488.384s1.04-.128 1.488-.384a2.87 2.87 0 0 0 1.088-1.136c.266-.501.4-1.083.4-1.744ZM300.797 378.432v5.168c0 .427.091.731.272.912.181.171.496.256.944.256h1.072V386h-1.312c-.811 0-1.419-.187-1.824-.56-.405-.373-.608-.987-.608-1.84v-5.168h-1.136v-1.2h1.136v-2.208h1.456v2.208h2.288v1.2h-2.288ZM312.849 381.28c0 .277-.016.571-.048.88h-7.008c.054.864.347 1.541.88 2.032.544.48 1.2.72 1.968.72.63 0 1.152-.144 1.568-.432.427-.299.726-.693.896-1.184h1.568a3.802 3.802 0 0 1-1.408 2.064c-.704.523-1.578.784-2.624.784-.832 0-1.578-.187-2.24-.56a3.997 3.997 0 0 1-1.536-1.584c-.373-.693-.56-1.493-.56-2.4 0-.907.182-1.701.544-2.384a3.787 3.787 0 0 1 1.52-1.568c.662-.373 1.419-.56 2.272-.56.832 0 1.568.181 2.208.544a3.7 3.7 0 0 1 1.472 1.504c.352.629.528 1.344.528 2.144Zm-1.504-.304c0-.555-.122-1.029-.368-1.424a2.316 2.316 0 0 0-1.008-.912 3.01 3.01 0 0 0-1.392-.32c-.736 0-1.365.235-1.888.704-.512.469-.805 1.12-.88 1.952h5.536ZM319.043 377.072c1.067 0 1.931.325 2.592.976.661.64.992 1.568.992 2.784V386h-1.44v-4.96c0-.875-.219-1.541-.656-2-.437-.469-1.035-.704-1.792-.704-.768 0-1.381.24-1.84.72-.448.48-.672 1.179-.672 2.096V386h-1.456v-8.768h1.456v1.248a2.898 2.898 0 0 1 1.168-1.04 3.703 3.703 0 0 1 1.648-.368ZM326.781 378.432v5.168c0 .427.091.731.272.912.182.171.496.256.944.256h1.072V386h-1.312c-.81 0-1.418-.187-1.824-.56-.405-.373-.608-.987-.608-1.84v-5.168h-1.136v-1.2h1.136v-2.208h1.456v2.208h2.288v1.2h-2.288ZM335.851 375.808a.958.958 0 0 1-.704-.288.958.958 0 0 1-.288-.704c0-.277.096-.512.288-.704a.958.958 0 0 1 .704-.288c.267 0 .491.096.672.288a.958.958 0 0 1 .288.704.958.958 0 0 1-.288.704.886.886 0 0 1-.672.288Zm.704 1.424V386h-1.456v-8.768h1.456ZM343.309 377.072c1.066 0 1.93.325 2.592.976.661.64.992 1.568.992 2.784V386h-1.44v-4.96c0-.875-.219-1.541-.656-2-.438-.469-1.035-.704-1.792-.704-.768 0-1.382.24-1.84.72-.448.48-.672 1.179-.672 2.096V386h-1.456v-8.768h1.456v1.248a2.898 2.898 0 0 1 1.168-1.04 3.7 3.7 0 0 1 1.648-.368ZM354.993 378.656a2.804 2.804 0 0 1 1.088-1.168c.48-.277 1.061-.416 1.744-.416v1.504h-.384c-1.632 0-2.448.885-2.448 2.656V386h-1.456v-8.768h1.456v1.424ZM367.505 381.28c0 .277-.016.571-.048.88h-7.008c.054.864.347 1.541.88 2.032.544.48 1.2.72 1.968.72.63 0 1.152-.144 1.568-.432.427-.299.726-.693.896-1.184h1.568a3.802 3.802 0 0 1-1.408 2.064c-.704.523-1.578.784-2.624.784-.832 0-1.578-.187-2.24-.56a3.997 3.997 0 0 1-1.536-1.584c-.373-.693-.56-1.493-.56-2.4 0-.907.182-1.701.544-2.384a3.787 3.787 0 0 1 1.52-1.568c.662-.373 1.419-.56 2.272-.56.832 0 1.568.181 2.208.544a3.7 3.7 0 0 1 1.472 1.504c.352.629.528 1.344.528 2.144Zm-1.504-.304c0-.555-.122-1.029-.368-1.424a2.316 2.316 0 0 0-1.008-.912 3.01 3.01 0 0 0-1.392-.32c-.736 0-1.365.235-1.888.704-.512.469-.805 1.12-.88 1.952h5.536ZM371.203 378.432v5.168c0 .427.091.731.272.912.182.171.496.256.944.256h1.072V386h-1.312c-.81 0-1.418-.187-1.824-.56-.405-.373-.608-.987-.608-1.84v-5.168h-1.136v-1.2h1.136v-2.208h1.456v2.208h2.288v1.2h-2.288ZM383.031 377.232V386h-1.456v-1.296c-.277.448-.666.8-1.168 1.056a3.598 3.598 0 0 1-1.632.368c-.682 0-1.296-.139-1.84-.416a3.186 3.186 0 0 1-1.296-1.28c-.309-.565-.464-1.253-.464-2.064v-5.136h1.44v4.944c0 .864.219 1.531.656 2 .438.459 1.035.688 1.792.688.779 0 1.392-.24 1.84-.72.448-.48.672-1.179.672-2.096v-4.816h1.456ZM386.946 378.656a2.804 2.804 0 0 1 1.088-1.168c.48-.277 1.061-.416 1.744-.416v1.504h-.384c-1.632 0-2.448.885-2.448 2.656V386h-1.456v-8.768h1.456v1.424ZM395.731 377.072c1.066 0 1.93.325 2.592.976.661.64.992 1.568.992 2.784V386h-1.44v-4.96c0-.875-.219-1.541-.656-2-.438-.469-1.035-.704-1.792-.704-.768 0-1.382.24-1.84.72-.448.48-.672 1.179-.672 2.096V386h-1.456v-8.768h1.456v1.248a2.898 2.898 0 0 1 1.168-1.04 3.7 3.7 0 0 1 1.648-.368ZM409.527 378.432h-1.84V386h-1.456v-7.568h-1.136v-1.2h1.136v-.624c0-.981.25-1.696.752-2.144.512-.459 1.328-.688 2.448-.688v1.216c-.64 0-1.094.128-1.36.384-.256.245-.384.656-.384 1.232v.624h1.84v1.2ZM415.048 386.144a4.538 4.538 0 0 1-2.24-.56A4.068 4.068 0 0 1 411.24 384c-.373-.693-.56-1.493-.56-2.4 0-.896.192-1.685.576-2.368a4.015 4.015 0 0 1 1.6-1.584c.672-.373 1.424-.56 2.256-.56.832 0 1.584.187 2.256.56.672.363 1.2.885 1.584 1.568.395.683.592 1.477.592 2.384 0 .907-.202 1.707-.608 2.4a4.108 4.108 0 0 1-1.616 1.584c-.682.373-1.44.56-2.272.56Zm0-1.28c.523 0 1.014-.123 1.472-.368a2.74 2.74 0 0 0 1.104-1.104c.288-.491.432-1.088.432-1.792s-.138-1.301-.416-1.792c-.277-.491-.64-.853-1.088-1.088a2.986 2.986 0 0 0-1.456-.368c-.533 0-1.024.123-1.472.368-.437.235-.789.597-1.056 1.088-.266.491-.4 1.088-.4 1.792 0 .715.128 1.317.384 1.808.267.491.619.859 1.056 1.104.438.235.918.352 1.44.352ZM422.915 378.656a2.804 2.804 0 0 1 1.088-1.168c.48-.277 1.061-.416 1.744-.416v1.504h-.384c-1.632 0-2.448.885-2.448 2.656V386h-1.456v-8.768h1.456v1.424ZM131.313 402.432v5.168c0 .427.09.731.272.912.181.171.496.256.944.256h1.072V410h-1.312c-.811 0-1.419-.187-1.824-.56-.406-.373-.608-.987-.608-1.84v-5.168h-1.136v-1.2h1.136v-2.208h1.456v2.208h2.288v1.2h-2.288ZM139.717 401.072c.661 0 1.258.144 1.792.432a2.92 2.92 0 0 1 1.248 1.264c.309.565.464 1.253.464 2.064V410h-1.44v-4.96c0-.875-.219-1.541-.656-2-.438-.469-1.035-.704-1.792-.704-.768 0-1.382.24-1.84.72-.448.48-.672 1.179-.672 2.096V410h-1.456v-11.84h1.456v4.32a2.873 2.873 0 0 1 1.184-1.04 3.914 3.914 0 0 1 1.712-.368ZM153.599 405.28c0 .277-.016.571-.048.88h-7.008c.054.864.347 1.541.88 2.032.544.48 1.2.72 1.968.72.63 0 1.152-.144 1.568-.432.427-.299.726-.693.896-1.184h1.568a3.802 3.802 0 0 1-1.408 2.064c-.704.523-1.578.784-2.624.784-.832 0-1.578-.187-2.24-.56a3.997 3.997 0 0 1-1.536-1.584c-.373-.693-.56-1.493-.56-2.4 0-.907.182-1.701.544-2.384a3.787 3.787 0 0 1 1.52-1.568c.662-.373 1.419-.56 2.272-.56.832 0 1.568.181 2.208.544a3.7 3.7 0 0 1 1.472 1.504c.352.629.528 1.344.528 2.144Zm-1.504-.304c0-.555-.122-1.029-.368-1.424a2.316 2.316 0 0 0-1.008-.912 3.01 3.01 0 0 0-1.392-.32c-.736 0-1.365.235-1.888.704-.512.469-.805 1.12-.88 1.952h5.536ZM156.273 399.808a.958.958 0 0 1-.704-.288.958.958 0 0 1-.288-.704c0-.277.096-.512.288-.704a.958.958 0 0 1 .704-.288c.267 0 .491.096.672.288a.958.958 0 0 1 .288.704.958.958 0 0 1-.288.704.886.886 0 0 1-.672.288Zm.704 1.424V410h-1.456v-8.768h1.456ZM160.915 402.656a2.804 2.804 0 0 1 1.088-1.168c.48-.277 1.061-.416 1.744-.416v1.504h-.384c-1.632 0-2.448.885-2.448 2.656V410h-1.456v-8.768h1.456v1.424ZM169.149 405.584c0-.896.181-1.68.544-2.352a3.952 3.952 0 0 1 1.488-1.584 4.18 4.18 0 0 1 2.144-.56c.683 0 1.317.16 1.904.48.587.309 1.035.72 1.344 1.232v-4.64h1.472V410h-1.472v-1.648c-.288.523-.715.955-1.28 1.296-.565.331-1.227.496-1.984.496a4.056 4.056 0 0 1-2.128-.576 4.047 4.047 0 0 1-1.488-1.616c-.363-.693-.544-1.483-.544-2.368Zm7.424.016c0-.661-.133-1.237-.4-1.728a2.752 2.752 0 0 0-1.088-1.12 2.851 2.851 0 0 0-1.488-.4c-.544 0-1.04.128-1.488.384a2.786 2.786 0 0 0-1.072 1.12c-.267.491-.4 1.067-.4 1.728 0 .672.133 1.259.4 1.76.267.491.624.869 1.072 1.136.448.256.944.384 1.488.384s1.04-.128 1.488-.384a2.864 2.864 0 0 0 1.088-1.136c.267-.501.4-1.083.4-1.744ZM181.257 399.808a.958.958 0 0 1-.704-.288.958.958 0 0 1-.288-.704c0-.277.096-.512.288-.704a.958.958 0 0 1 .704-.288c.267 0 .491.096.672.288a.958.958 0 0 1 .288.704.958.958 0 0 1-.288.704.886.886 0 0 1-.672.288Zm.704 1.424V410h-1.456v-8.768h1.456ZM187.547 410.144c-.672 0-1.275-.112-1.808-.336-.533-.235-.955-.555-1.264-.96a2.598 2.598 0 0 1-.512-1.424h1.504c.043.437.245.795.608 1.072.373.277.859.416 1.456.416.555 0 .992-.123 1.312-.368.32-.245.48-.555.48-.928 0-.384-.171-.667-.512-.848-.341-.192-.869-.379-1.584-.56a13.017 13.017 0 0 1-1.6-.512 3.044 3.044 0 0 1-1.056-.784c-.288-.352-.432-.811-.432-1.376 0-.448.133-.859.4-1.232s.645-.667 1.136-.88c.491-.224 1.051-.336 1.68-.336.971 0 1.755.245 2.352.736s.917 1.163.96 2.016h-1.456a1.494 1.494 0 0 0-.56-1.104c-.331-.277-.779-.416-1.344-.416-.523 0-.939.112-1.248.336-.309.224-.464.517-.464.88 0 .288.091.528.272.72.192.181.427.331.704.448.288.107.683.229 1.184.368.629.171 1.141.341 1.536.512.395.16.731.405 1.008.736.288.331.437.763.448 1.296 0 .48-.133.912-.4 1.296s-.645.688-1.136.912c-.48.213-1.035.32-1.664.32ZM192.258 405.6c0-.907.182-1.696.544-2.368a3.916 3.916 0 0 1 1.504-1.584c.651-.373 1.392-.56 2.224-.56 1.078 0 1.963.261 2.656.784.704.523 1.168 1.248 1.392 2.176h-1.568a2.234 2.234 0 0 0-.88-1.264c-.426-.309-.96-.464-1.6-.464-.832 0-1.504.288-2.016.864-.512.565-.768 1.371-.768 2.416 0 1.056.256 1.872.768 2.448.512.576 1.184.864 2.016.864.64 0 1.174-.149 1.6-.448.427-.299.72-.725.88-1.28h1.568c-.234.896-.704 1.616-1.408 2.16-.704.533-1.584.8-2.64.8-.832 0-1.573-.187-2.224-.56a3.916 3.916 0 0 1-1.504-1.584c-.362-.683-.544-1.483-.544-2.4ZM203.977 398.16V410h-1.456v-11.84h1.456ZM210.283 410.144a4.536 4.536 0 0 1-2.24-.56 4.061 4.061 0 0 1-1.568-1.584c-.374-.693-.56-1.493-.56-2.4 0-.896.192-1.685.576-2.368a4.009 4.009 0 0 1 1.6-1.584c.672-.373 1.424-.56 2.256-.56.832 0 1.584.187 2.256.56.672.363 1.2.885 1.584 1.568.394.683.592 1.477.592 2.384 0 .907-.203 1.707-.608 2.4a4.121 4.121 0 0 1-1.616 1.584c-.683.373-1.44.56-2.272.56Zm0-1.28c.522 0 1.013-.123 1.472-.368a2.753 2.753 0 0 0 1.104-1.104c.288-.491.432-1.088.432-1.792s-.139-1.301-.416-1.792c-.278-.491-.64-.853-1.088-1.088a2.988 2.988 0 0 0-1.456-.368c-.534 0-1.024.123-1.472.368-.438.235-.79.597-1.056 1.088-.267.491-.4 1.088-.4 1.792 0 .715.128 1.317.384 1.808.266.491.618.859 1.056 1.104.437.235.917.352 1.44.352ZM219.797 410.144c-.672 0-1.275-.112-1.808-.336-.533-.235-.955-.555-1.264-.96a2.598 2.598 0 0 1-.512-1.424h1.504c.043.437.245.795.608 1.072.373.277.859.416 1.456.416.555 0 .992-.123 1.312-.368.32-.245.48-.555.48-.928 0-.384-.171-.667-.512-.848-.341-.192-.869-.379-1.584-.56a13.017 13.017 0 0 1-1.6-.512 3.044 3.044 0 0 1-1.056-.784c-.288-.352-.432-.811-.432-1.376 0-.448.133-.859.4-1.232s.645-.667 1.136-.88c.491-.224 1.051-.336 1.68-.336.971 0 1.755.245 2.352.736s.917 1.163.96 2.016h-1.456a1.494 1.494 0 0 0-.56-1.104c-.331-.277-.779-.416-1.344-.416-.523 0-.939.112-1.248.336-.309.224-.464.517-.464.88 0 .288.091.528.272.72.192.181.427.331.704.448.288.107.683.229 1.184.368.629.171 1.141.341 1.536.512.395.16.731.405 1.008.736.288.331.437.763.448 1.296 0 .48-.133.912-.4 1.296s-.645.688-1.136.912c-.48.213-1.035.32-1.664.32ZM232.828 401.232V410h-1.456v-1.296c-.277.448-.666.8-1.168 1.056a3.598 3.598 0 0 1-1.632.368c-.682 0-1.296-.139-1.84-.416a3.186 3.186 0 0 1-1.296-1.28c-.309-.565-.464-1.253-.464-2.064v-5.136h1.44v4.944c0 .864.219 1.531.656 2 .438.459 1.035.688 1.792.688.779 0 1.392-.24 1.84-.72.448-.48.672-1.179.672-2.096v-4.816h1.456ZM236.743 402.656a2.804 2.804 0 0 1 1.088-1.168c.48-.277 1.061-.416 1.744-.416v1.504h-.384c-1.632 0-2.448.885-2.448 2.656V410h-1.456v-8.768h1.456v1.424ZM249.255 405.28c0 .277-.016.571-.048.88h-7.008c.054.864.347 1.541.88 2.032.544.48 1.2.72 1.968.72.63 0 1.152-.144 1.568-.432.427-.299.726-.693.896-1.184h1.568a3.802 3.802 0 0 1-1.408 2.064c-.704.523-1.578.784-2.624.784-.832 0-1.578-.187-2.24-.56a3.997 3.997 0 0 1-1.536-1.584c-.373-.693-.56-1.493-.56-2.4 0-.907.182-1.701.544-2.384a3.787 3.787 0 0 1 1.52-1.568c.662-.373 1.419-.56 2.272-.56.832 0 1.568.181 2.208.544a3.7 3.7 0 0 1 1.472 1.504c.352.629.528 1.344.528 2.144Zm-1.504-.304c0-.555-.122-1.029-.368-1.424a2.316 2.316 0 0 0-1.008-.912 3.01 3.01 0 0 0-1.392-.32c-.736 0-1.365.235-1.888.704-.512.469-.805 1.12-.88 1.952h5.536ZM259.267 410.144a4.538 4.538 0 0 1-2.24-.56 4.068 4.068 0 0 1-1.568-1.584c-.373-.693-.56-1.493-.56-2.4 0-.896.192-1.685.576-2.368a4.015 4.015 0 0 1 1.6-1.584c.672-.373 1.424-.56 2.256-.56.832 0 1.584.187 2.256.56.672.363 1.2.885 1.584 1.568.395.683.592 1.477.592 2.384 0 .907-.203 1.707-.608 2.4a4.114 4.114 0 0 1-1.616 1.584c-.683.373-1.44.56-2.272.56Zm0-1.28c.523 0 1.013-.123 1.472-.368a2.74 2.74 0 0 0 1.104-1.104c.288-.491.432-1.088.432-1.792s-.139-1.301-.416-1.792c-.277-.491-.64-.853-1.088-1.088a2.986 2.986 0 0 0-1.456-.368c-.533 0-1.024.123-1.472.368-.437.235-.789.597-1.056 1.088-.267.491-.4 1.088-.4 1.792 0 .715.128 1.317.384 1.808.267.491.619.859 1.056 1.104.437.235.917.352 1.44.352ZM269.245 402.432h-1.84V410h-1.456v-7.568h-1.136v-1.2h1.136v-.624c0-.981.251-1.696.752-2.144.512-.459 1.328-.688 2.448-.688v1.216c-.64 0-1.093.128-1.36.384-.256.245-.384.656-.384 1.232v.624h1.84v1.2ZM276.985 402.432v5.168c0 .427.09.731.272.912.181.171.496.256.944.256h1.072V410h-1.312c-.811 0-1.419-.187-1.824-.56-.406-.373-.608-.987-.608-1.84v-5.168h-1.136v-1.2h1.136v-2.208h1.456v2.208h2.288v1.2h-2.288ZM285.389 401.072c.661 0 1.258.144 1.792.432a2.92 2.92 0 0 1 1.248 1.264c.309.565.464 1.253.464 2.064V410h-1.44v-4.96c0-.875-.219-1.541-.656-2-.438-.469-1.035-.704-1.792-.704-.768 0-1.382.24-1.84.72-.448.48-.672 1.179-.672 2.096V410h-1.456v-11.84h1.456v4.32a2.873 2.873 0 0 1 1.184-1.04 3.914 3.914 0 0 1 1.712-.368ZM299.271 405.28c0 .277-.016.571-.048.88h-7.008c.053.864.347 1.541.88 2.032.544.48 1.2.72 1.968.72.629 0 1.152-.144 1.568-.432.427-.299.725-.693.896-1.184h1.568a3.807 3.807 0 0 1-1.408 2.064c-.704.523-1.579.784-2.624.784-.832 0-1.579-.187-2.24-.56a3.984 3.984 0 0 1-1.536-1.584c-.373-.693-.56-1.493-.56-2.4 0-.907.181-1.701.544-2.384a3.781 3.781 0 0 1 1.52-1.568c.661-.373 1.419-.56 2.272-.56.832 0 1.568.181 2.208.544a3.7 3.7 0 0 1 1.472 1.504c.352.629.528 1.344.528 2.144Zm-1.504-.304c0-.555-.123-1.029-.368-1.424a2.316 2.316 0 0 0-1.008-.912 3.01 3.01 0 0 0-1.392-.32c-.736 0-1.365.235-1.888.704-.512.469-.805 1.12-.88 1.952h5.536ZM301.945 399.808a.958.958 0 0 1-.704-.288.958.958 0 0 1-.288-.704c0-.277.096-.512.288-.704a.958.958 0 0 1 .704-.288c.267 0 .491.096.672.288a.958.958 0 0 1 .288.704.958.958 0 0 1-.288.704.886.886 0 0 1-.672.288Zm.704 1.424V410h-1.456v-8.768h1.456ZM306.586 402.656a2.81 2.81 0 0 1 1.088-1.168c.48-.277 1.062-.416 1.744-.416v1.504h-.384c-1.632 0-2.448.885-2.448 2.656V410h-1.456v-8.768h1.456v1.424ZM314.821 405.6c0-.907.181-1.696.544-2.368a3.909 3.909 0 0 1 1.504-1.584c.65-.373 1.392-.56 2.224-.56 1.077 0 1.962.261 2.656.784.704.523 1.168 1.248 1.392 2.176h-1.568a2.243 2.243 0 0 0-.88-1.264c-.427-.309-.96-.464-1.6-.464-.832 0-1.504.288-2.016.864-.512.565-.768 1.371-.768 2.416 0 1.056.256 1.872.768 2.448.512.576 1.184.864 2.016.864.64 0 1.173-.149 1.6-.448.426-.299.72-.725.88-1.28h1.568c-.235.896-.704 1.616-1.408 2.16-.704.533-1.584.8-2.64.8-.832 0-1.574-.187-2.224-.56a3.909 3.909 0 0 1-1.504-1.584c-.363-.683-.544-1.483-.544-2.4ZM326.54 402.656a2.804 2.804 0 0 1 1.088-1.168c.48-.277 1.061-.416 1.744-.416v1.504h-.384c-1.632 0-2.448.885-2.448 2.656V410h-1.456v-8.768h1.456v1.424ZM339.052 405.28c0 .277-.016.571-.048.88h-7.008c.054.864.347 1.541.88 2.032.544.48 1.2.72 1.968.72.63 0 1.152-.144 1.568-.432.427-.299.726-.693.896-1.184h1.568a3.802 3.802 0 0 1-1.408 2.064c-.704.523-1.578.784-2.624.784-.832 0-1.578-.187-2.24-.56a3.997 3.997 0 0 1-1.536-1.584c-.373-.693-.56-1.493-.56-2.4 0-.907.182-1.701.544-2.384a3.787 3.787 0 0 1 1.52-1.568c.662-.373 1.419-.56 2.272-.56.832 0 1.568.181 2.208.544a3.7 3.7 0 0 1 1.472 1.504c.352.629.528 1.344.528 2.144Zm-1.504-.304c0-.555-.122-1.029-.368-1.424a2.316 2.316 0 0 0-1.008-.912 3.01 3.01 0 0 0-1.392-.32c-.736 0-1.365.235-1.888.704-.512.469-.805 1.12-.88 1.952h5.536ZM340.43 405.584c0-.896.182-1.68.544-2.352a3.952 3.952 0 0 1 1.488-1.584 4.15 4.15 0 0 1 2.128-.56c.768 0 1.435.165 2 .496.566.331.987.747 1.264 1.248v-1.6h1.472V410h-1.472v-1.632c-.288.512-.72.939-1.296 1.28-.565.331-1.226.496-1.984.496a3.978 3.978 0 0 1-2.112-.576 4.047 4.047 0 0 1-1.488-1.616c-.362-.693-.544-1.483-.544-2.368Zm7.424.016c0-.661-.133-1.237-.4-1.728a2.745 2.745 0 0 0-1.088-1.12 2.851 2.851 0 0 0-1.488-.4c-.544 0-1.04.128-1.488.384a2.786 2.786 0 0 0-1.072 1.12c-.266.491-.4 1.067-.4 1.728 0 .672.134 1.259.4 1.76.267.491.624.869 1.072 1.136.448.256.944.384 1.488.384s1.04-.128 1.488-.384a2.857 2.857 0 0 0 1.088-1.136c.267-.501.4-1.083.4-1.744ZM353.563 402.432v5.168c0 .427.09.731.272.912.181.171.496.256.944.256h1.072V410h-1.312c-.811 0-1.419-.187-1.824-.56-.406-.373-.608-.987-.608-1.84v-5.168h-1.136v-1.2h1.136v-2.208h1.456v2.208h2.288v1.2h-2.288ZM358.367 399.808a.957.957 0 0 1-.704-.288.958.958 0 0 1-.288-.704c0-.277.096-.512.288-.704a.957.957 0 0 1 .704-.288.89.89 0 0 1 .672.288.958.958 0 0 1 .288.704.958.958 0 0 1-.288.704.89.89 0 0 1-.672.288Zm.704 1.424V410h-1.456v-8.768h1.456ZM365.376 410.144a4.538 4.538 0 0 1-2.24-.56 4.068 4.068 0 0 1-1.568-1.584c-.373-.693-.56-1.493-.56-2.4 0-.896.192-1.685.576-2.368a4.015 4.015 0 0 1 1.6-1.584c.672-.373 1.424-.56 2.256-.56.832 0 1.584.187 2.256.56.672.363 1.2.885 1.584 1.568.395.683.592 1.477.592 2.384 0 .907-.202 1.707-.608 2.4a4.108 4.108 0 0 1-1.616 1.584c-.682.373-1.44.56-2.272.56Zm0-1.28c.523 0 1.014-.123 1.472-.368a2.74 2.74 0 0 0 1.104-1.104c.288-.491.432-1.088.432-1.792s-.138-1.301-.416-1.792c-.277-.491-.64-.853-1.088-1.088a2.986 2.986 0 0 0-1.456-.368c-.533 0-1.024.123-1.472.368-.437.235-.789.597-1.056 1.088-.266.491-.4 1.088-.4 1.792 0 .715.128 1.317.384 1.808.267.491.619.859 1.056 1.104.438.235.918.352 1.44.352ZM376.059 401.072c1.066 0 1.93.325 2.592.976.661.64.992 1.568.992 2.784V410h-1.44v-4.96c0-.875-.219-1.541-.656-2-.438-.469-1.035-.704-1.792-.704-.768 0-1.382.24-1.84.72-.448.48-.672 1.179-.672 2.096V410h-1.456v-8.768h1.456v1.248a2.898 2.898 0 0 1 1.168-1.04 3.7 3.7 0 0 1 1.648-.368ZM385.125 410.144c-.672 0-1.275-.112-1.808-.336-.533-.235-.955-.555-1.264-.96a2.598 2.598 0 0 1-.512-1.424h1.504c.043.437.245.795.608 1.072.373.277.859.416 1.456.416.555 0 .992-.123 1.312-.368.32-.245.48-.555.48-.928 0-.384-.171-.667-.512-.848-.341-.192-.869-.379-1.584-.56a13.017 13.017 0 0 1-1.6-.512 3.044 3.044 0 0 1-1.056-.784c-.288-.352-.432-.811-.432-1.376 0-.448.133-.859.4-1.232s.645-.667 1.136-.88c.491-.224 1.051-.336 1.68-.336.971 0 1.755.245 2.352.736s.917 1.163.96 2.016h-1.456a1.494 1.494 0 0 0-.56-1.104c-.331-.277-.779-.416-1.344-.416-.523 0-.939.112-1.248.336-.309.224-.464.517-.464.88 0 .288.091.528.272.72.192.181.427.331.704.448.288.107.683.229 1.184.368.629.171 1.141.341 1.536.512.395.16.731.405 1.008.736.288.331.437.763.448 1.296 0 .48-.133.912-.4 1.296s-.645.688-1.136.912c-.48.213-1.035.32-1.664.32ZM391.116 397.264l-.192 3.184h-1.008l-.208-3.184h1.408ZM154.969 434.144c-.672 0-1.275-.112-1.808-.336-.534-.235-.955-.555-1.264-.96a2.59 2.59 0 0 1-.512-1.424h1.504c.042.437.245.795.608 1.072.373.277.858.416 1.456.416.554 0 .992-.123 1.312-.368.32-.245.48-.555.48-.928 0-.384-.171-.667-.512-.848-.342-.192-.87-.379-1.584-.56a13.017 13.017 0 0 1-1.6-.512 3.026 3.026 0 0 1-1.056-.784c-.288-.352-.432-.811-.432-1.376 0-.448.133-.859.4-1.232.266-.373.645-.667 1.136-.88.49-.224 1.05-.336 1.68-.336.97 0 1.754.245 2.352.736.597.491.917 1.163.96 2.016h-1.456a1.494 1.494 0 0 0-.56-1.104c-.331-.277-.779-.416-1.344-.416-.523 0-.939.112-1.248.336-.31.224-.464.517-.464.88 0 .288.09.528.272.72.192.181.426.331.704.448.288.107.682.229 1.184.368.629.171 1.141.341 1.536.512.394.16.73.405 1.008.736.288.331.437.763.448 1.296 0 .48-.134.912-.4 1.296-.267.384-.646.688-1.136.912-.48.213-1.035.32-1.664.32ZM161.68 426.848c.288-.501.715-.917 1.28-1.248.576-.341 1.243-.512 2-.512.779 0 1.483.187 2.112.56.64.373 1.142.901 1.504 1.584.363.672.544 1.456.544 2.352 0 .885-.181 1.675-.544 2.368a4 4 0 0 1-1.504 1.616 3.973 3.973 0 0 1-2.112.576c-.746 0-1.408-.165-1.984-.496-.565-.341-.997-.763-1.296-1.264v5.776h-1.456v-12.928h1.456v1.616Zm5.952 2.736c0-.661-.133-1.237-.4-1.728a2.745 2.745 0 0 0-1.088-1.12 2.946 2.946 0 0 0-1.488-.384c-.533 0-1.029.133-1.488.4-.448.256-.81.635-1.088 1.136-.266.491-.4 1.061-.4 1.712 0 .661.134 1.243.4 1.744.278.491.64.869 1.088 1.136.459.256.955.384 1.488.384.544 0 1.04-.128 1.488-.384a2.857 2.857 0 0 0 1.088-1.136c.267-.501.4-1.088.4-1.76ZM179.037 429.28c0 .277-.016.571-.048.88h-7.008c.053.864.346 1.541.88 2.032.544.48 1.2.72 1.968.72.629 0 1.152-.144 1.568-.432.426-.299.725-.693.896-1.184h1.568a3.807 3.807 0 0 1-1.408 2.064c-.704.523-1.579.784-2.624.784-.832 0-1.579-.187-2.24-.56a3.984 3.984 0 0 1-1.536-1.584c-.374-.693-.56-1.493-.56-2.4 0-.907.181-1.701.544-2.384a3.775 3.775 0 0 1 1.52-1.568c.661-.373 1.418-.56 2.272-.56.832 0 1.568.181 2.208.544.64.363 1.13.864 1.472 1.504.352.629.528 1.344.528 2.144Zm-1.504-.304c0-.555-.123-1.029-.368-1.424a2.327 2.327 0 0 0-1.008-.912 3.01 3.01 0 0 0-1.392-.32c-.736 0-1.366.235-1.888.704-.512.469-.806 1.12-.88 1.952h5.536ZM180.415 429.6c0-.907.181-1.696.544-2.368a3.909 3.909 0 0 1 1.504-1.584c.65-.373 1.392-.56 2.224-.56 1.077 0 1.962.261 2.656.784.704.523 1.168 1.248 1.392 2.176h-1.568a2.243 2.243 0 0 0-.88-1.264c-.427-.309-.96-.464-1.6-.464-.832 0-1.504.288-2.016.864-.512.565-.768 1.371-.768 2.416 0 1.056.256 1.872.768 2.448.512.576 1.184.864 2.016.864.64 0 1.173-.149 1.6-.448.426-.299.72-.725.88-1.28h1.568c-.235.896-.704 1.616-1.408 2.16-.704.533-1.584.8-2.64.8-.832 0-1.574-.187-2.224-.56a3.909 3.909 0 0 1-1.504-1.584c-.363-.683-.544-1.483-.544-2.4ZM191.429 423.808a.958.958 0 0 1-.704-.288.958.958 0 0 1-.288-.704c0-.277.096-.512.288-.704a.958.958 0 0 1 .704-.288c.267 0 .491.096.672.288a.958.958 0 0 1 .288.704.958.958 0 0 1-.288.704.886.886 0 0 1-.672.288Zm.704 1.424V434h-1.456v-8.768h1.456ZM198.183 426.432h-1.84V434h-1.456v-7.568h-1.136v-1.2h1.136v-.624c0-.981.25-1.696.752-2.144.512-.459 1.328-.688 2.448-.688v1.216c-.64 0-1.094.128-1.36.384-.256.245-.384.656-.384 1.232v.624h1.84v1.2ZM200.632 423.808a.958.958 0 0 1-.704-.288.958.958 0 0 1-.288-.704c0-.277.096-.512.288-.704a.958.958 0 0 1 .704-.288c.267 0 .491.096.672.288a.958.958 0 0 1 .288.704.958.958 0 0 1-.288.704.886.886 0 0 1-.672.288Zm.704 1.424V434h-1.456v-8.768h1.456ZM203.274 429.6c0-.907.181-1.696.544-2.368a3.916 3.916 0 0 1 1.504-1.584c.651-.373 1.392-.56 2.224-.56 1.077 0 1.963.261 2.656.784.704.523 1.168 1.248 1.392 2.176h-1.568a2.238 2.238 0 0 0-.88-1.264c-.427-.309-.96-.464-1.6-.464-.832 0-1.504.288-2.016.864-.512.565-.768 1.371-.768 2.416 0 1.056.256 1.872.768 2.448.512.576 1.184.864 2.016.864.64 0 1.173-.149 1.6-.448.427-.299.72-.725.88-1.28h1.568c-.235.896-.704 1.616-1.408 2.16-.704.533-1.584.8-2.64.8-.832 0-1.573-.187-2.224-.56a3.916 3.916 0 0 1-1.504-1.584c-.363-.683-.544-1.483-.544-2.4ZM212.993 429.584c0-.896.181-1.68.544-2.352a3.938 3.938 0 0 1 1.488-1.584 4.148 4.148 0 0 1 2.128-.56c.768 0 1.434.165 2 .496.565.331.986.747 1.264 1.248v-1.6h1.472V434h-1.472v-1.632c-.288.512-.72.939-1.296 1.28-.566.331-1.227.496-1.984.496a3.973 3.973 0 0 1-2.112-.576 4.033 4.033 0 0 1-1.488-1.616c-.363-.693-.544-1.483-.544-2.368Zm7.424.016c0-.661-.134-1.237-.4-1.728a2.758 2.758 0 0 0-1.088-1.12 2.851 2.851 0 0 0-1.488-.4c-.544 0-1.04.128-1.488.384a2.78 2.78 0 0 0-1.072 1.12c-.267.491-.4 1.067-.4 1.728 0 .672.133 1.259.4 1.76.266.491.624.869 1.072 1.136.448.256.944.384 1.488.384s1.04-.128 1.488-.384a2.87 2.87 0 0 0 1.088-1.136c.266-.501.4-1.083.4-1.744ZM226.125 426.432v5.168c0 .427.091.731.272.912.182.171.496.256.944.256h1.072V434h-1.312c-.81 0-1.418-.187-1.824-.56-.405-.373-.608-.987-.608-1.84v-5.168h-1.136v-1.2h1.136v-2.208h1.456v2.208h2.288v1.2h-2.288ZM230.929 423.808a.958.958 0 0 1-.704-.288.958.958 0 0 1-.288-.704c0-.277.096-.512.288-.704a.958.958 0 0 1 .704-.288c.267 0 .491.096.672.288a.958.958 0 0 1 .288.704.958.958 0 0 1-.288.704.886.886 0 0 1-.672.288Zm.704 1.424V434h-1.456v-8.768h1.456ZM237.939 434.144a4.536 4.536 0 0 1-2.24-.56 4.061 4.061 0 0 1-1.568-1.584c-.374-.693-.56-1.493-.56-2.4 0-.896.192-1.685.576-2.368a4.009 4.009 0 0 1 1.6-1.584c.672-.373 1.424-.56 2.256-.56.832 0 1.584.187 2.256.56.672.363 1.2.885 1.584 1.568.394.683.592 1.477.592 2.384 0 .907-.203 1.707-.608 2.4a4.121 4.121 0 0 1-1.616 1.584c-.683.373-1.44.56-2.272.56Zm0-1.28c.522 0 1.013-.123 1.472-.368a2.753 2.753 0 0 0 1.104-1.104c.288-.491.432-1.088.432-1.792s-.139-1.301-.416-1.792c-.278-.491-.64-.853-1.088-1.088a2.988 2.988 0 0 0-1.456-.368c-.534 0-1.024.123-1.472.368-.438.235-.79.597-1.056 1.088-.267.491-.4 1.088-.4 1.792 0 .715.128 1.317.384 1.808.266.491.618.859 1.056 1.104.437.235.917.352 1.44.352ZM248.621 425.072c1.067 0 1.931.325 2.592.976.662.64.992 1.568.992 2.784V434h-1.44v-4.96c0-.875-.218-1.541-.656-2-.437-.469-1.034-.704-1.792-.704-.768 0-1.381.24-1.84.72-.448.48-.672 1.179-.672 2.096V434h-1.456v-8.768h1.456v1.248a2.905 2.905 0 0 1 1.168-1.04 3.706 3.706 0 0 1 1.648-.368ZM257.688 434.144c-.672 0-1.275-.112-1.808-.336-.534-.235-.955-.555-1.264-.96a2.59 2.59 0 0 1-.512-1.424h1.504c.042.437.245.795.608 1.072.373.277.858.416 1.456.416.554 0 .992-.123 1.312-.368.32-.245.48-.555.48-.928 0-.384-.171-.667-.512-.848-.342-.192-.87-.379-1.584-.56a13.017 13.017 0 0 1-1.6-.512 3.026 3.026 0 0 1-1.056-.784c-.288-.352-.432-.811-.432-1.376 0-.448.133-.859.4-1.232.266-.373.645-.667 1.136-.88.49-.224 1.05-.336 1.68-.336.97 0 1.754.245 2.352.736.597.491.917 1.163.96 2.016h-1.456a1.494 1.494 0 0 0-.56-1.104c-.331-.277-.779-.416-1.344-.416-.523 0-.939.112-1.248.336-.31.224-.464.517-.464.88 0 .288.09.528.272.72.192.181.426.331.704.448.288.107.682.229 1.184.368.629.171 1.141.341 1.536.512.394.16.73.405 1.008.736.288.331.437.763.448 1.296 0 .48-.134.912-.4 1.296-.267.384-.646.688-1.136.912-.48.213-1.035.32-1.664.32ZM268.985 426.432v5.168c0 .427.09.731.272.912.181.171.496.256.944.256h1.072V434h-1.312c-.811 0-1.419-.187-1.824-.56-.406-.373-.608-.987-.608-1.84v-5.168h-1.136v-1.2h1.136v-2.208h1.456v2.208h2.288v1.2h-2.288ZM276.861 434.144a4.536 4.536 0 0 1-2.24-.56 4.061 4.061 0 0 1-1.568-1.584c-.374-.693-.56-1.493-.56-2.4 0-.896.192-1.685.576-2.368a4.009 4.009 0 0 1 1.6-1.584c.672-.373 1.424-.56 2.256-.56.832 0 1.584.187 2.256.56.672.363 1.2.885 1.584 1.568.394.683.592 1.477.592 2.384 0 .907-.203 1.707-.608 2.4a4.121 4.121 0 0 1-1.616 1.584c-.683.373-1.44.56-2.272.56Zm0-1.28c.522 0 1.013-.123 1.472-.368a2.753 2.753 0 0 0 1.104-1.104c.288-.491.432-1.088.432-1.792s-.139-1.301-.416-1.792c-.278-.491-.64-.853-1.088-1.088a2.988 2.988 0 0 0-1.456-.368c-.534 0-1.024.123-1.472.368-.438.235-.79.597-1.056 1.088-.267.491-.4 1.088-.4 1.792 0 .715.128 1.317.384 1.808.266.491.618.859 1.056 1.104.437.235.917.352 1.44.352ZM289.313 426.432v5.168c0 .427.09.731.272.912.181.171.496.256.944.256h1.072V434h-1.312c-.811 0-1.419-.187-1.824-.56-.406-.373-.608-.987-.608-1.84v-5.168h-1.136v-1.2h1.136v-2.208h1.456v2.208h2.288v1.2h-2.288ZM297.717 425.072c.661 0 1.258.144 1.792.432a2.92 2.92 0 0 1 1.248 1.264c.309.565.464 1.253.464 2.064V434h-1.44v-4.96c0-.875-.219-1.541-.656-2-.438-.469-1.035-.704-1.792-.704-.768 0-1.382.24-1.84.72-.448.48-.672 1.179-.672 2.096V434h-1.456v-11.84h1.456v4.32a2.873 2.873 0 0 1 1.184-1.04 3.914 3.914 0 0 1 1.712-.368ZM311.599 429.28c0 .277-.016.571-.048.88h-7.008c.054.864.347 1.541.88 2.032.544.48 1.2.72 1.968.72.63 0 1.152-.144 1.568-.432.427-.299.726-.693.896-1.184h1.568a3.802 3.802 0 0 1-1.408 2.064c-.704.523-1.578.784-2.624.784-.832 0-1.578-.187-2.24-.56a3.997 3.997 0 0 1-1.536-1.584c-.373-.693-.56-1.493-.56-2.4 0-.907.182-1.701.544-2.384a3.787 3.787 0 0 1 1.52-1.568c.662-.373 1.419-.56 2.272-.56.832 0 1.568.181 2.208.544a3.7 3.7 0 0 1 1.472 1.504c.352.629.528 1.344.528 2.144Zm-1.504-.304c0-.555-.122-1.029-.368-1.424a2.316 2.316 0 0 0-1.008-.912 3.01 3.01 0 0 0-1.392-.32c-.736 0-1.365.235-1.888.704-.512.469-.805 1.12-.88 1.952h5.536ZM319.243 426.848c.288-.501.714-.917 1.28-1.248.576-.341 1.242-.512 2-.512.778 0 1.482.187 2.112.56.64.373 1.141.901 1.504 1.584.362.672.544 1.456.544 2.352 0 .885-.182 1.675-.544 2.368a4.008 4.008 0 0 1-3.616 2.192c-.747 0-1.408-.165-1.984-.496-.566-.341-.998-.763-1.296-1.264v5.776h-1.456v-12.928h1.456v1.616Zm5.952 2.736c0-.661-.134-1.237-.4-1.728a2.758 2.758 0 0 0-1.088-1.12 2.946 2.946 0 0 0-1.488-.384c-.534 0-1.03.133-1.488.4-.448.256-.811.635-1.088 1.136-.267.491-.4 1.061-.4 1.712 0 .661.133 1.243.4 1.744.277.491.64.869 1.088 1.136a3 3 0 0 0 1.488.384c.544 0 1.04-.128 1.488-.384a2.87 2.87 0 0 0 1.088-1.136c.266-.501.4-1.088.4-1.76ZM336.375 425.232V434h-1.456v-1.296c-.277.448-.666.8-1.168 1.056a3.598 3.598 0 0 1-1.632.368c-.682 0-1.296-.139-1.84-.416a3.186 3.186 0 0 1-1.296-1.28c-.309-.565-.464-1.253-.464-2.064v-5.136h1.44v4.944c0 .864.219 1.531.656 2 .438.459 1.035.688 1.792.688.779 0 1.392-.24 1.84-.72.448-.48.672-1.179.672-2.096v-4.816h1.456ZM340.29 426.864c.298-.523.736-.949 1.312-1.28.576-.331 1.232-.496 1.968-.496.789 0 1.498.187 2.128.56a3.952 3.952 0 0 1 1.488 1.584c.362.672.544 1.456.544 2.352 0 .885-.182 1.675-.544 2.368a4.008 4.008 0 0 1-3.616 2.192c-.758 0-1.424-.165-2-.496-.566-.331-.992-.752-1.28-1.264V434h-1.456v-11.84h1.456v4.704Zm5.952 2.72c0-.661-.134-1.237-.4-1.728a2.758 2.758 0 0 0-1.088-1.12 2.946 2.946 0 0 0-1.488-.384c-.534 0-1.03.133-1.488.4-.448.256-.811.635-1.088 1.136-.267.491-.4 1.061-.4 1.712 0 .661.133 1.243.4 1.744.277.491.64.869 1.088 1.136a3 3 0 0 0 1.488.384c.544 0 1.04-.128 1.488-.384a2.87 2.87 0 0 0 1.088-1.136c.266-.501.4-1.088.4-1.76ZM351.102 422.16V434h-1.456v-11.84h1.456ZM354.336 423.808a.957.957 0 0 1-.704-.288.958.958 0 0 1-.288-.704c0-.277.096-.512.288-.704a.957.957 0 0 1 .704-.288.89.89 0 0 1 .672.288.958.958 0 0 1 .288.704.958.958 0 0 1-.288.704.89.89 0 0 1-.672.288Zm.704 1.424V434h-1.456v-8.768h1.456ZM356.977 429.6c0-.907.181-1.696.544-2.368a3.916 3.916 0 0 1 1.504-1.584c.651-.373 1.392-.56 2.224-.56 1.077 0 1.963.261 2.656.784.704.523 1.168 1.248 1.392 2.176h-1.568a2.238 2.238 0 0 0-.88-1.264c-.427-.309-.96-.464-1.6-.464-.832 0-1.504.288-2.016.864-.512.565-.768 1.371-.768 2.416 0 1.056.256 1.872.768 2.448.512.576 1.184.864 2.016.864.64 0 1.173-.149 1.6-.448.427-.299.72-.725.88-1.28h1.568c-.235.896-.704 1.616-1.408 2.16-.704.533-1.584.8-2.64.8-.832 0-1.573-.187-2.224-.56a3.916 3.916 0 0 1-1.504-1.584c-.363-.683-.544-1.483-.544-2.4ZM367.704 434.096a.957.957 0 0 1-.704-.288.958.958 0 0 1-.288-.704c0-.277.096-.512.288-.704a.957.957 0 0 1 .704-.288.89.89 0 0 1 .672.288.958.958 0 0 1 .288.704.958.958 0 0 1-.288.704.89.89 0 0 1-.672.288Z" fill="#fff"/></svg>