<svg width="154" height="154" fill="none" xmlns="http://www.w3.org/2000/svg"><path d="m56.788 98.656 7.7-43.312h12.03L69.06 98.656H56.788Z" fill="#3C58BF"/><path d="m56.788 98.656 9.865-43.312h9.866l-7.46 43.312H56.788Z" fill="#293688"/><path d="M112.612 55.825c-2.406-.963-6.256-1.925-11.068-1.925-12.031 0-20.694 6.016-20.694 14.678 0 6.497 6.016 9.866 10.828 12.031 4.813 2.166 6.256 3.61 6.256 5.535 0 2.887-3.85 4.331-7.218 4.331-4.813 0-7.46-.722-11.55-2.406l-1.685-.722-1.684 9.866c2.887 1.203 8.181 2.406 13.716 2.406 12.753 0 21.175-6.016 21.175-15.16 0-5.053-3.129-8.903-10.347-12.03-4.332-2.166-6.978-3.37-6.978-5.535 0-1.925 2.165-3.85 6.978-3.85 4.09 0 6.978.722 9.143 1.684l1.204.481 1.924-9.384Z" fill="#3C58BF"/><path d="M112.612 55.825c-2.406-.963-6.256-1.925-11.068-1.925-12.031 0-18.528 6.016-18.528 14.678 0 6.497 3.85 9.866 8.662 12.031 4.813 2.166 6.256 3.61 6.256 5.535 0 2.887-3.85 4.331-7.218 4.331-4.813 0-7.46-.722-11.55-2.406l-1.685-.722-1.684 9.866c2.887 1.203 8.181 2.406 13.716 2.406 12.753 0 21.175-6.016 21.175-15.16 0-5.053-3.129-8.903-10.347-12.03-4.332-2.166-6.978-3.37-6.978-5.535 0-1.925 2.165-3.85 6.978-3.85 4.09 0 6.978.722 9.143 1.684l1.204.481 1.924-9.384Z" fill="#293688"/><path d="M133.306 55.344c-2.887 0-5.053.24-6.256 3.128l-18.047 40.184h12.994l2.406-7.219h15.4l1.444 7.22h11.55l-10.106-43.313h-9.385Zm-5.534 28.875c.722-2.166 4.812-12.753 4.812-12.753s.963-2.647 1.685-4.332l.722 4.091s2.406 10.828 2.887 13.234h-10.106v-.24Z" fill="#3C58BF"/><path d="M136.194 55.344c-2.888 0-5.053.24-6.256 3.128l-20.935 40.184h12.994l2.406-7.219h15.4l1.444 7.22h11.55l-10.106-43.313h-6.497Zm-8.422 28.875c.962-2.406 4.812-12.753 4.812-12.753s.963-2.647 1.685-4.332l.722 4.091s2.406 10.828 2.887 13.234h-10.106v-.24Z" fill="#293688"/><path d="m34.65 85.662-1.203-6.256c-2.166-7.219-9.144-15.16-16.844-19.01l10.828 38.5h12.994l19.49-43.312H46.923L34.65 85.662Z" fill="#3C58BF"/><path d="m34.65 85.662-1.203-6.256c-2.166-7.219-9.144-15.16-16.844-19.01l10.828 38.5h12.994l19.49-43.312H49.329L34.65 85.662Z" fill="#293688"/><path d="m1.203 55.344 2.166.481c15.4 3.61 25.987 12.753 30.078 23.581l-4.331-20.453c-.722-2.887-2.888-3.61-5.535-3.61H1.203Z" fill="#FFBC00"/><path d="M1.203 55.344c15.4 3.61 28.153 12.994 32.244 23.822l-4.09-17.085c-.723-2.887-3.129-4.572-5.776-4.572L1.203 55.344Z" fill="#F7981D"/><path d="M1.203 55.344c15.4 3.61 28.153 12.994 32.244 23.822l-2.888-9.385c-.722-2.887-1.684-5.775-5.053-6.978l-24.303-7.46Z" fill="#ED7C00"/><path d="M46.681 84.219 38.5 76.038l-3.85 9.143-.962-6.015c-2.166-7.22-9.144-15.16-16.844-19.01l10.828 38.5h12.994L46.68 84.22ZM69.06 98.656 58.711 88.07l-1.925 10.587H69.06ZM96.731 83.737c.963.963 1.444 1.685 1.203 2.647 0 2.888-3.85 4.332-7.218 4.332-4.813 0-7.46-.722-11.55-2.407l-1.685-.721-1.684 9.865c2.887 1.203 8.181 2.406 13.716 2.406 7.7 0 13.956-2.165 17.565-6.015L96.731 83.738ZM110.688 98.656h11.309l2.406-7.218h15.4l1.444 7.218h11.55l-4.091-17.565-14.437-13.956.722 3.85s2.406 10.828 2.887 13.234h-10.106c.962-2.406 4.812-12.753 4.812-12.753s.963-2.647 1.685-4.331" fill="#051244"/></svg>