<svg width="38" height="38" fill="none" xmlns="http://www.w3.org/2000/svg"><g clip-path="url('#clip0_1_967')" fill="#fff"><path d="M37.14 17.946c-.045 4.705-1.255 8.387-3.771 11.586-2.702 3.436-6.22 5.618-10.524 6.501-3.325.676-6.561.379-9.738-.772a15.04 15.04 0 0 1-2.056-.927.669.669 0 0 0-.594-.052c-3.005.972-6.019 1.937-9.032 2.894-.134.045-.312.17-.416.074-.118-.118.03-.297.075-.438.6-1.788 1.202-3.584 1.81-5.373.372-1.091.728-2.175 1.114-3.258.104-.282.067-.497-.09-.757A17.201 17.201 0 0 1 2.19 23.26a17.44 17.44 0 0 1-.244-8.298c.638-3.028 1.974-5.73 4.03-8.06 2.486-2.82 5.551-4.683 9.195-5.58a17.392 17.392 0 0 1 7.029-.276c3.087.505 5.87 1.73 8.297 3.704 2.524 2.056 4.365 4.609 5.522 7.674.639 1.655 1.143 4.364 1.121 5.522ZM5.536 32.767c1.84-.593 3.6-1.157 5.343-1.729.23-.074.416-.06.616.075.668.445 1.388.801 2.13 1.113 2.413 1.024 4.921 1.395 7.511 1.061 3.177-.408 5.968-1.685 8.313-3.904 2.954-2.798 4.535-6.227 4.676-10.28.133-3.97-1.143-7.458-3.808-10.42-2.53-2.812-5.707-4.415-9.455-4.816-3.258-.35-6.309.356-9.129 2.048a14.584 14.584 0 0 0-5.544 5.938c-1.418 2.753-1.9 5.677-1.492 8.743a14.232 14.232 0 0 0 2.472 6.36c.148.216.193.394.103.646-.274.757-.519 1.521-.779 2.278-.312.936-.616 1.87-.957 2.887Z"/><path d="M10.465 14.45c.037-1.766.66-3.08 1.84-4.126.379-.342.847-.49 1.373-.416.223.03.446.052.668.037.416-.022.698.178.84.542.496 1.291.979 2.583 1.461 3.882.164.445-.118.794-.356 1.113-.275.379-.609.713-.935 1.047-.334.34-.379.534-.149.95 1.344 2.441 3.229 4.32 5.79 5.477.088.037.178.089.267.134.341.155.645.118.905-.179.475-.556.995-1.068 1.433-1.655.289-.386.49-.453.927-.26 1.306.565 2.531 1.277 3.778 1.967.23.127.312.32.304.587-.067 2.19-1.32 3.332-3.525 3.837-1.069.245-2.056-.023-3.036-.379-2.056-.742-4.037-1.618-5.7-3.087a20.895 20.895 0 0 1-3.473-3.941c-.757-1.128-1.544-2.234-1.982-3.548-.252-.698-.438-1.41-.43-1.982Z"/></g><defs><clipPath id="clip0_1_967"><path fill="#fff" d="M0 0h38v38H0z"/></clipPath></defs></svg>