<svg width="40" height="39" fill="none" xmlns="http://www.w3.org/2000/svg"><path d="M34.138 31.23H5.862c-.265 0-.52-.104-.707-.286a.963.963 0 0 1-.293-.69V7.734c0-.259.105-.507.293-.69.187-.183.442-.285.707-.285h28.276c.265 0 .52.102.707.285.188.183.293.431.293.69v22.52a.963.963 0 0 1-.293.69 1.013 1.013 0 0 1-.707.285ZM6.862 29.28h26.276V8.708H6.862v20.57Z" fill="#034EA2"/><path d="M10 10.725c-.265 0-.52-.103-.707-.285A.963.963 0 0 1 9 9.75V5.715c0-.258.105-.506.293-.689.187-.183.442-.286.707-.286.265 0 .52.103.707.286.188.183.293.43.293.69V9.75a.963.963 0 0 1-.293.69 1.013 1.013 0 0 1-.707.285ZM30 10.725c-.265 0-.52-.103-.707-.285A.963.963 0 0 1 29 9.75V5.715c0-.258.105-.506.293-.689.187-.183.442-.286.707-.286.265 0 .52.103.707.286.188.183.293.43.293.69V9.75a.963.963 0 0 1-.293.69 1.013 1.013 0 0 1-.707.285ZM32.4 34.26H7.612a2.79 2.79 0 0 1-1.943-.787 2.652 2.652 0 0 1-.807-1.895V29.25c0-.259.105-.507.293-.69.187-.182.442-.285.707-.285.265 0 .52.103.707.286.188.182.293.43.293.689v2.328c0 .194.08.38.22.517a.76.76 0 0 0 .53.215H32.4a.76.76 0 0 0 .53-.215.722.722 0 0 0 .218-.517V29.25c0-.259.105-.507.293-.69.188-.182.442-.285.707-.285.265 0 .52.103.707.286.188.182.293.43.293.689v2.328a2.652 2.652 0 0 1-.806 1.894 2.79 2.79 0 0 1-1.942.788ZM10 15.6a1.025 1.025 0 0 1-.712-.285 1.099 1.099 0 0 1-.124-.148 1.161 1.161 0 0 1-.092-.17.956.956 0 0 1-.052-.177.958.958 0 0 1 .424-1.01 1.034 1.034 0 0 1 .938-.09 1.002 1.002 0 0 1 .45.359.964.964 0 0 1 .092.922 1.164 1.164 0 0 1-.092.17A1.004 1.004 0 0 1 10 15.6ZM13.334 15.6a1.082 1.082 0 0 1-.388-.074 1.004 1.004 0 0 1-.448-.359 1.005 1.005 0 0 1-.15-.35.95.95 0 0 1 .058-.571.96.96 0 0 1 .54-.528 1.082 1.082 0 0 1 .588-.056 1.064 1.064 0 0 1 .358.144.973.973 0 0 1 .272 1.365.99.99 0 0 1-.634.413.975.975 0 0 1-.196.016ZM16.666 15.6a1.048 1.048 0 0 1-.56-.164.963.963 0 0 1-.27-1.357.91.91 0 0 1 .276-.27 1.032 1.032 0 0 1 .36-.144 1.082 1.082 0 0 1 .588.055 1.089 1.089 0 0 1 .324.21c.046.047.087.096.124.15a.947.947 0 0 1 .168.546.952.952 0 0 1-.292.69 1.14 1.14 0 0 1-.152.12 1.106 1.106 0 0 1-.172.09 1.091 1.091 0 0 1-.394.074ZM26.666 15.6a1.03 1.03 0 0 1-.56-.164.91.91 0 0 1-.152-.12 1.14 1.14 0 0 1-.126-.149.964.964 0 0 1-.092-.922c.026-.06.057-.116.092-.17a1.14 1.14 0 0 1 .126-.148.915.915 0 0 1 .152-.121 1.046 1.046 0 0 1 .936-.09.962.962 0 0 1 .542.528.95.95 0 0 1-.092.923.96.96 0 0 1-.45.359 1.008 1.008 0 0 1-.376.074ZM23.334 15.6a1.022 1.022 0 0 1-.708-.285.995.995 0 0 1-.292-.694c0-.16.04-.318.118-.46a.984.984 0 0 1 .326-.35 1.016 1.016 0 0 1 1.386.268 1.008 1.008 0 0 1 .15.351.922.922 0 0 1-.058.571.914.914 0 0 1-.092.168.934.934 0 0 1-.276.271 1.038 1.038 0 0 1-.36.144.942.942 0 0 1-.194.016ZM20 15.6a1.028 1.028 0 0 1-.712-.285.963.963 0 0 1-.212-1.066c.026-.06.057-.116.092-.17a.925.925 0 0 1 .278-.27 1.024 1.024 0 0 1 1.26.12.972.972 0 0 1 .218.32.956.956 0 0 1 0 .75.975.975 0 0 1-.542.527A1.023 1.023 0 0 1 20 15.6ZM30 15.6c-.198 0-.392-.057-.556-.164a.98.98 0 0 1-.37-.438.952.952 0 0 1 .218-1.063.987.987 0 0 1 .326-.21 1.024 1.024 0 0 1 .938.089c.123.08.227.185.303.31a.958.958 0 0 1-.151 1.191A1.027 1.027 0 0 1 30 15.6ZM10 19.5a1.025 1.025 0 0 1-.712-.285 1 1 0 0 1-.216-.317.96.96 0 0 1-.052-.178.955.955 0 0 1 .148-.741.96.96 0 0 1 .45-.359 1.024 1.024 0 0 1 .936.09c.11.071.204.162.278.269a.96.96 0 0 1 .148.741.964.964 0 0 1-.426.62 1.023 1.023 0 0 1-.358.144.954.954 0 0 1-.196.016ZM13.334 19.5a1.082 1.082 0 0 1-.388-.074.96.96 0 0 1-.54-.528.95.95 0 0 1 .092-.923 1.09 1.09 0 0 1 .124-.148c.047-.045.098-.085.152-.121.054-.035.112-.065.172-.09a1.082 1.082 0 0 1 .588-.054 1.064 1.064 0 0 1 .358.144c.055.035.105.076.152.12a1.008 1.008 0 0 1 .274.5c.025.129.025.261 0 .39a.964.964 0 0 1-.15.351.985.985 0 0 1-.634.413.973.973 0 0 1-.2.02ZM16.666 19.5a1.048 1.048 0 0 1-.56-.164.963.963 0 0 1-.27-1.357.98.98 0 0 1 .636-.413 1.082 1.082 0 0 1 .588.055.957.957 0 0 1 .596.71.955.955 0 0 1-.098.655.985.985 0 0 1-.686.495.949.949 0 0 1-.206.019ZM26.666 19.5a1.044 1.044 0 0 1-.56-.164.907.907 0 0 1-.152-.12 1.13 1.13 0 0 1-.126-.149.948.948 0 0 1-.168-.546.947.947 0 0 1 .294-.692.826.826 0 0 1 .152-.123 1.028 1.028 0 0 1 1.386.27 1 1 0 0 1 .15.35 1.02 1.02 0 0 1-.058.572.962.962 0 0 1-.542.528 1.028 1.028 0 0 1-.376.074ZM23.334 19.5c-.265 0-.52-.103-.707-.286a.962.962 0 0 1-.125-1.233.998.998 0 0 1 .54-.392 1.025 1.025 0 0 1 .846.12c.11.072.204.164.276.272a.96.96 0 0 1 .15.74 1.005 1.005 0 0 1-.274.5.911.911 0 0 1-.152.12 1.03 1.03 0 0 1-.554.16ZM20 19.5a1.023 1.023 0 0 1-.712-.285.98.98 0 0 1-.216-.317.952.952 0 0 1-.052-.178.953.953 0 0 1 .272-.89 1.101 1.101 0 0 1 .326-.21 1.024 1.024 0 0 1 .936.09c.11.071.204.162.278.269a.96.96 0 0 1 .148.741.964.964 0 0 1-.426.62 1.023 1.023 0 0 1-.358.144.954.954 0 0 1-.196.016ZM30 19.5a1.015 1.015 0 0 1-.712-.285.953.953 0 0 1-.216-1.062.981.981 0 0 1 .369-.437 1.018 1.018 0 0 1 1.11 0c.165.107.293.26.369.437a.952.952 0 0 1-.216 1.062 1.138 1.138 0 0 1-.152.121A1.02 1.02 0 0 1 30 19.5ZM10 23.4a1.01 1.01 0 0 1-.836-.433.958.958 0 0 1-.148-.741.955.955 0 0 1 .148-.35.961.961 0 0 1 .45-.36 1.024 1.024 0 0 1 .936.09c.11.071.204.163.278.27a.96.96 0 0 1-.126 1.236.91.91 0 0 1-.152.12 1.012 1.012 0 0 1-.358.144.955.955 0 0 1-.192.024ZM13.334 23.4a1.082 1.082 0 0 1-.388-.074.96.96 0 0 1-.54-.528.95.95 0 0 1 .092-.923.96.96 0 0 1 .448-.359 1.082 1.082 0 0 1 .588-.054 1.064 1.064 0 0 1 .358.144.973.973 0 0 1 .148 1.513.915.915 0 0 1-.152.121 1.064 1.064 0 0 1-.358.144.968.968 0 0 1-.196.016ZM16.666 23.4a1.044 1.044 0 0 1-.56-.164.907.907 0 0 1-.276-.269.946.946 0 0 1-.17-.546.95.95 0 0 1 .294-.694 1.089 1.089 0 0 1 .324-.21 1.009 1.009 0 0 1 .588-.055c.064.012.127.03.188.054a.992.992 0 0 1 .448.36.964.964 0 0 1 .092.92.962.962 0 0 1-.54.529 1.087 1.087 0 0 1-.388.075ZM26.666 23.4a1.048 1.048 0 0 1-.56-.164.975.975 0 0 1-.446-.811.954.954 0 0 1 .294-.69 1.014 1.014 0 0 1 1.088-.21 1.03 1.03 0 0 1 .326.21.97.97 0 0 1 .289.785.96.96 0 0 1-.441.716 1.037 1.037 0 0 1-.55.164ZM23.334 23.4c-.265 0-.52-.103-.707-.286a.963.963 0 0 1-.125-1.235.995.995 0 0 1 .449-.358 1.023 1.023 0 0 1 1.089.21.978.978 0 0 1 .274.885.96.96 0 0 1-.15.351.99.99 0 0 1-.83.433ZM20 23.4a1.008 1.008 0 0 1-.836-.433.95.95 0 0 1-.148-.351.922.922 0 0 1 0-.39.946.946 0 0 1 .148-.35.974.974 0 0 1 .45-.36 1.024 1.024 0 0 1 .936.09c.11.071.204.163.278.27a.96.96 0 0 1 .148.741.964.964 0 0 1-.426.62 1.012 1.012 0 0 1-.55.164ZM30 23.4a1.023 1.023 0 0 1-.712-.285.989.989 0 0 1-.272-.889.95.95 0 0 1 .272-.5 1.001 1.001 0 0 1 .708-.286 1.021 1.021 0 0 1 .708.287.98.98 0 0 1 .272.5.96.96 0 0 1-.424 1.01A1.028 1.028 0 0 1 30 23.4ZM10 27.3a1.01 1.01 0 0 1-.836-.433.956.956 0 0 1-.148-.741.958.958 0 0 1 .424-.62 1.025 1.025 0 0 1 1.11 0 .922.922 0 0 1 .152.123.885.885 0 0 1 .218.316.963.963 0 0 1 0 .753.882.882 0 0 1-.218.316.928.928 0 0 1-.324.212A1.012 1.012 0 0 1 10 27.3ZM13.334 27.3a1.074 1.074 0 0 1-.388-.074 1.093 1.093 0 0 1-.172-.09.976.976 0 0 1-.364-1.188 1.005 1.005 0 0 1 .216-.318 1.11 1.11 0 0 1 .324-.21 1.028 1.028 0 0 1 .946.09c.11.07.204.163.276.271a.96.96 0 0 1 .15.349 1.03 1.03 0 0 1 0 .39.958.958 0 0 1-.15.35.933.933 0 0 1-.276.27 1.061 1.061 0 0 1-.358.144.962.962 0 0 1-.204.016ZM16.666 27.3a1.032 1.032 0 0 1-.56-.164.915.915 0 0 1-.276-.269.964.964 0 0 1 .276-1.357 1.04 1.04 0 0 1 .76-.144c.064.012.127.03.188.054a.984.984 0 0 1 .497.443.954.954 0 0 1 .095.657.95.95 0 0 1-.148.351.958.958 0 0 1-.448.359.94.94 0 0 1-.384.07ZM26.666 27.3a1.04 1.04 0 0 1-.56-.164.975.975 0 0 1-.446-.811.954.954 0 0 1 .294-.69 1.027 1.027 0 0 1 .512-.266 1.008 1.008 0 0 1 .576.055 1.03 1.03 0 0 1 .326.21.972.972 0 0 1 .289.787.96.96 0 0 1-.441.715 1.037 1.037 0 0 1-.55.164ZM23.334 27.3a1.022 1.022 0 0 1-.708-.285.995.995 0 0 1-.274-.889.958.958 0 0 1 .15-.35.995.995 0 0 1 .449-.36 1.023 1.023 0 0 1 1.089.21 1.008 1.008 0 0 1 .274.5.922.922 0 0 1-.058.571.914.914 0 0 1-.092.168.934.934 0 0 1-.276.271 1.046 1.046 0 0 1-.554.164ZM20 27.3a1.008 1.008 0 0 1-.836-.433.947.947 0 0 1-.148-.351.922.922 0 0 1 0-.39.948.948 0 0 1 .148-.35.978.978 0 0 1 .45-.36 1.025 1.025 0 0 1 .936.09c.11.071.204.163.278.27a.963.963 0 0 1 .092.922 1.168 1.168 0 0 1-.092.17A1.004 1.004 0 0 1 20 27.3ZM30 27.3c-.198 0-.392-.057-.556-.164a.98.98 0 0 1-.37-.438.952.952 0 0 1 .218-1.063.987.987 0 0 1 .326-.21 1.024 1.024 0 0 1 .938.089c.123.08.227.186.303.31a.958.958 0 0 1-.151 1.191A1.028 1.028 0 0 1 30 27.3Z" fill="#034EA2"/></svg>